<?xml version="1.0" encoding="utf-8"?>
<!-- Generator: Adobe Illustrator 22.1.0, SVG Export Plug-In . SVG Version: 6.00 Build 0)  -->
<svg version="1.1" id="Layer_1" xmlns="http://www.w3.org/2000/svg" xmlns:xlink="http://www.w3.org/1999/xlink" x="0px" y="0px"
	 viewBox="0 0 262 50" style="enable-background:new 0 0 262 50;" xml:space="preserve">
<style type="text/css">
	.st0{fill:#D70F27;}
</style>
<g>
	<g>
		<path class="st0" d="M88.2,37.7h5.6v-26h-9.3l-5.6,16c-0.3,1.2-0.6,2.1-0.8,3.1l0,0.3h-0.7l0-0.3c-0.1-0.9-0.4-1.9-0.7-3l-5.7-16
			h-9.2v26h5.2V20.4c0-1.3-0.1-2.6-0.2-3.6l-0.1-0.4h0.9l0.1,0.3c0.2,0.9,0.5,2.2,0.9,3.2l6.3,17.8h5.5l6.3-17.8
			c0.4-1,0.8-2.5,1-3.2l0.1-0.3h0.8l-0.1,0.4c-0.1,1.1-0.2,2.4-0.2,3.6L88.2,37.7L88.2,37.7z M94.4,38.4h-7v-18c0-0.2,0-0.5,0-0.7
			c-0.1,0.2-0.1,0.3-0.2,0.5l-6.5,18.3h-6.6l-6.5-18.3c-0.1-0.1-0.1-0.2-0.1-0.4c0,0.2,0,0.4,0,0.6v18H61V11.1h10.4l5.8,16.5
			c0.2,0.6,0.3,1.1,0.5,1.6c0.1-0.5,0.3-1,0.5-1.6l5.7-16.5h10.6L94.4,38.4L94.4,38.4z"/>
		<path class="st0" d="M108.8,23.4c-3,0-4.8,1.9-4.8,5.2c0,3.4,1.8,5.3,4.8,5.3c3,0,4.8-1.9,4.8-5.3
			C113.5,25.3,111.8,23.4,108.8,23.4 M108.8,34.7c-3.4,0-5.5-2.3-5.5-6c0-3.7,2.1-6,5.5-6c3.4,0,5.5,2.2,5.5,6
			C114.2,32.4,112.2,34.7,108.8,34.7 M108.8,19.1c-7,0-11.4,3.7-11.4,9.6c0,5.9,4.4,9.6,11.4,9.6c7,0,11.4-3.7,11.4-9.6
			C120.1,22.8,115.8,19.1,108.8,19.1 M108.8,39c-7.4,0-12.1-4.1-12.1-10.4c0-6.2,4.8-10.3,12.1-10.3c7.3,0,12.1,4,12.1,10.3
			C120.8,34.9,116.1,39,108.8,39"/>
		<path class="st0" d="M139.1,37.7h5.8V27.6c0-5.6-2.6-8.5-7.6-8.5c-3.5,0-6,1.4-7.5,4.3l-0.7,1.3v-5h-5.6v18.1h5.8v-8.8
			c0-3.6,1.9-5.7,5.2-5.7c3.1,0,4.6,1.8,4.6,5.3V37.7L139.1,37.7z M145.6,38.4h-7.2v-9.9c0-3.1-1.2-4.6-3.9-4.6
			c-2.9,0-4.4,1.8-4.4,5v9.5h-7.2V19h7v3c1.6-2.3,4.2-3.5,7.4-3.5c5.5,0,8.4,3.2,8.4,9.2L145.6,38.4L145.6,38.4z"/>
		<path class="st0" d="M146.4,23.2h4.2v8.3c0,4.6,2.5,6.7,7.9,6.7c1.5,0,2.8-0.2,4-0.5v-4.2c-0.6,0.1-1.3,0.2-2.2,0.2
			c-2.6,0-3.9-1.2-3.9-3.6v-6.9h6.2v-3.5h-6.2v-6.7l-5.8,2.1v4.6h-4.2L146.4,23.2L146.4,23.2z M158.5,38.9c-5.7,0-8.6-2.5-8.6-7.4
			v-7.6h-4.2v-5h4.2v-4.4l7.2-2.7v7h6.2v5h-6.2v6.2c0,2,1,2.9,3.2,2.9c1.1,0,1.9-0.2,2.5-0.3l0.4-0.1v5.6l-0.3,0.1
			C161.6,38.7,160.2,38.9,158.5,38.9"/>
		<path class="st0" d="M166.1,37.7h5.8v-6.7c0-2.5,0.6-4.2,1.8-5.3c1-1,2.6-1.5,4.5-1.5c0.6,0,1.1,0.1,1.6,0.1v-5.2
			c-0.2,0-0.5,0-0.9,0c-3.4,0-5.9,1.9-6.9,5.4l-0.7,2.4v-7.3h-5.2L166.1,37.7L166.1,37.7z M172.6,38.4h-7.2V19h6.6v3.6
			c1.4-2.6,3.8-4.1,6.9-4.1c0.5,0,0.9,0,1.3,0.1l0.3,0.1v6.6l-0.6-0.1c-0.6-0.1-1.1-0.1-1.7-0.1c-1.8,0-3.1,0.4-4,1.3
			c-1.1,1-1.6,2.5-1.6,4.8L172.6,38.4C172.5,38.4,172.6,38.4,172.6,38.4z"/>
		<path class="st0" d="M189.9,16.4h4.3l5.4-5.2h-5.3L189.9,16.4z M194.4,17.1h-6.1l5.6-6.6h7.4L194.4,17.1z M187,26.3h9.3
			c-0.1-2.2-1.8-3.5-4.5-3.5C189,22.8,187.3,24,187,26.3 M197,27h-10.8l0-0.4c0.2-2.8,2.3-4.5,5.5-4.5c3.2,0,5.2,1.8,5.2,4.5V27z
			 M191.8,19.1c-6.8,0-11,3.7-11,9.7c0,5.9,4.2,9.4,11.3,9.4c4.5,0,8-1.6,9.9-4.4l-4.2-1.9c-1.2,1.7-3.1,2.6-5.6,2.6
			c-3.5,0-5.8-1.7-6-4.5l0-0.4h16.4v-1.1C202.6,22.6,198.7,19.1,191.8,19.1 M192.1,39c-7.5,0-12-3.8-12-10.2
			c0-6.5,4.5-10.5,11.7-10.5c7.2,0,11.6,3.8,11.6,10.2v1.9H187c0.4,2.1,2.3,3.4,5.3,3.4c2.3,0,4.1-0.9,5.1-2.6l0.2-0.3l5.5,2.5
			l-0.2,0.3C200.8,37.2,197,39,192.1,39"/>
		<path class="st0" d="M218.5,33.6c1-0.8,1.5-1.8,1.5-3v-1.1l-5,0.5c-1.4,0.2-2.3,0.5-2.9,0.9c-0.6,0.4-0.9,1-0.9,1.7
			c0,0.7,0.3,1.2,0.9,1.6c0.6,0.4,1.5,0.6,2.6,0.6C216.2,34.7,217.5,34.4,218.5,33.6 M206.5,37.1c-1.4-1-2.1-2.4-2.1-4.2
			c0-1.8,0.7-3.2,2.1-4.1c0.7-0.5,1.5-0.8,2.5-1.1s2.3-0.5,4-0.7l6.8-0.6v-0.6c0-1-0.3-1.8-1-2.3c-0.7-0.5-1.6-0.8-2.9-0.8
			s-2.3,0.2-3,0.7c-0.8,0.5-1.2,1.2-1.3,2.1H205c0.2-2.1,1.4-3.8,3.3-5c2-1.2,4.5-1.8,7.6-1.8c3.6,0,6.2,0.7,7.9,2
			c1.7,1.3,2.5,3.3,2.5,6.1v5.8c0,2.3,0.1,4.2,0.4,5.5h-6.4c-0.2-0.8-0.3-1.9-0.3-3.2c-0.6,1.2-1.6,2.1-3,2.8c-1.4,0.7-3.1,1-5,1
			C209.8,38.7,207.9,38.1,206.5,37.1"/>
	</g>
	<rect x="230.7" y="10.9" class="st0" width="6.5" height="27.2"/>
	<g>
		<path class="st0" d="M244.3,37.6c-1.9-0.7-3.5-1.8-4.6-3.2l3.4-2.9c1.8,2,4.6,3,8.3,3c2.5,0,3.8-0.6,3.8-1.7
			c0-0.5-0.2-0.9-0.6-1.1c-0.4-0.2-1.1-0.4-2.1-0.5l-5.1-0.6c-2.3-0.3-3.9-0.9-5-1.9s-1.6-2.2-1.6-3.9c0-1.9,0.9-3.4,2.6-4.4
			c1.7-1.1,4.1-1.6,7.3-1.6c2.3,0,4.3,0.3,6,0.9c1.8,0.6,3.2,1.4,4.2,2.5l-3,3c-1-0.8-2.1-1.4-3.3-1.8s-2.7-0.6-4.4-0.6
			c-1.2,0-2.1,0.1-2.7,0.4c-0.6,0.2-0.9,0.7-0.9,1.2c0,0.5,0.2,0.8,0.5,1c0.4,0.2,0.9,0.4,1.8,0.5l5.7,0.6c2.3,0.3,3.9,0.9,4.9,1.8
			c1,0.9,1.5,2.2,1.5,3.9c0,2-0.9,3.6-2.5,4.7c-1.7,1.1-4.1,1.7-7.3,1.7C248.5,38.7,246.3,38.3,244.3,37.6"/>
	</g>
</g>
<g>
	<path class="st0" d="M25,49.6l-7.8-5.7l6.3-12.4l-4.9-9.7c-0.6-1.1-2-1.6-3.2-1C14.5,21.2,14,22.1,14,23v18.7L0,31.4V8.6
		c0-1.5,0.4-2.9,1.4-4.1C3.6,1.4,8,0.7,11.2,2.9l9.2,6.7L25,0.4l4.6,9.2l9.2-6.7c3.1-2.3,7.5-1.6,9.8,1.6C49.5,5.7,50,7.2,50,8.6
		v22.8L36,41.6V22.9c0-0.9-0.5-1.7-1.3-2.1c-1.2-0.6-2.6-0.1-3.2,1l-4.9,9.7l6.3,12.4L25,49.6z M20.7,43l4.3,3.1l4.3-3.1L25,34.5
		L20.7,43z M2.8,30l8.5,6.2V23c0-1.9,1.1-3.7,2.8-4.6c2.5-1.3,5.6-0.3,6.9,2.3l4,7.8l4-7.8c1.3-2.5,4.4-3.5,6.9-2.3
		c1.7,0.9,2.8,2.6,2.8,4.6v13.2l8.5-6.2V8.6c0-0.9-0.3-1.8-0.8-2.5c-1.4-1.9-4-2.3-6-0.9l-11.8,8.6L25,6.5l-3.7,7.2L9.5,5.2
		c-0.9-0.7-2.1-1-3.2-0.7C5.2,4.6,4.2,5.2,3.5,6.1C3,6.9,2.7,7.7,2.7,8.6L2.8,30z"/>
</g>
</svg>
