<?xml version="1.0" encoding="utf-8"?>
<!-- Generator: Adobe Illustrator 24.3.0, SVG Export Plug-In . SVG Version: 6.00 Build 0)  -->
<svg version="1.1" id="Layer_1" xmlns="http://www.w3.org/2000/svg" xmlns:xlink="http://www.w3.org/1999/xlink" x="0px" y="0px"
	 viewBox="0 0 1722 328.4" style="enable-background:new 0 0 1722 328.4;" xml:space="preserve">
<style type="text/css">
	.st0{fill:#FFFFFF;}
	.st1{fill:#0A2240;}
	.st2{fill:#5F8DB5;}
</style>
<path class="st0" d="M381.5,72.6h-11.1v40h-8.6v-40h-11.1V64h30.8L381.5,72.6L381.5,72.6z M419.1,102.8c0,2.9-0.8,5.2-2.3,7
	c-1.6,1.9-3.9,2.8-6.7,2.8h-12.9c-2.8,0-5-0.9-6.6-2.8c-1.6-1.8-2.4-4.2-2.4-7v-29c0-2.8,0.8-5.2,2.4-7c1.6-1.8,3.8-2.8,6.6-2.8
	h12.9c2.8,0,5,0.9,6.7,2.8c1.5,1.8,2.3,4.1,2.3,7V102.8z M410.5,101.2V75.5c0-1.9-1-2.9-3.1-2.9h-7.3c-2.1,0-3.1,1-3.1,2.9v25.6
	c0,1.9,1,2.9,3.1,2.9h7.3C409.4,104.1,410.5,103.1,410.5,101.2z M456.8,112.7h-9.2l-7.4-20h-5.6v20H426V64h21.6c3.1,0,5.4,1,7.1,3.1
	c1.4,1.7,2.1,3.9,2.1,6.5v9.9c0,2.8-0.9,5-2.6,6.7c-1.4,1.2-3,2-4.9,2.3C449.2,92.5,456.8,112.7,456.8,112.7L456.8,112.7z M448,80.9
	v-5.2c0-2.1-1-3.1-2.9-3.1h-10.6V84h10.7C447.1,84,448,83,448,80.9L448,80.9z M494.2,102.8c0,2.9-0.8,5.2-2.3,7
	c-1.6,1.9-3.9,2.8-6.7,2.8h-12.9c-2.8,0-5-0.9-6.6-2.8c-1.6-1.8-2.4-4.2-2.4-7v-29c0-2.8,0.8-5.2,2.4-7c1.6-1.8,3.8-2.8,6.6-2.8
	h12.9c2.8,0,5,0.9,6.7,2.8c1.5,1.8,2.3,4.1,2.3,7V102.8z M485.6,101.2V75.5c0-1.9-1-2.9-3.1-2.9h-7.3c-2.1,0-3.1,1-3.1,2.9v25.6
	c0,1.9,1,2.9,3.1,2.9h7.3C484.6,104.1,485.6,103.1,485.6,101.2z M531.8,112.7h-8.1l-14.1-28.2v28.2H501V64h8.1l14,28.2V64h8.6
	L531.8,112.7z M569.4,72.6h-11.1v40h-8.6v-40h-11.1V64h30.8L569.4,72.6L569.4,72.6z M607,102.8c0,2.9-0.8,5.2-2.3,7
	c-1.6,1.9-3.9,2.8-6.7,2.8h-12.9c-2.8,0-5-0.9-6.6-2.8c-1.6-1.8-2.4-4.2-2.4-7v-29c0-2.8,0.8-5.2,2.4-7s3.8-2.8,6.6-2.8H598
	c2.8,0,5,0.9,6.7,2.8c1.5,1.8,2.3,4.1,2.3,7V102.8z M598.3,101.2V75.5c0-1.9-1-2.9-3.1-2.9h-7.3c-2.1,0-3.1,1-3.1,2.9v25.6
	c0,1.9,1,2.9,3.1,2.9h7.3C597.3,104.1,598.3,103.1,598.3,101.2z M419.8,265.4h-23.3l-4.8-21.2h-24.2l-4.8,21.2h-23.3l29.4-126.9
	h21.4L419.8,265.4z M386.5,221.7l-6.9-30l-6.9,30H386.5L386.5,221.7z M517.8,265.4h-24.1l-19.3-52.2H460v52.2h-22.5V138.5h56.4
	c8,0,14.2,2.7,18.5,8.2c3.6,4.5,5.5,10.2,5.5,17v25.7c0,7.3-2.2,13.1-6.7,17.3c-3.5,3.2-7.8,5.2-12.9,6.1L517.8,265.4z M495.3,182.5
	V169c0-5.4-2.5-8-7.6-8H460v29.7h27.8C492.8,190.7,495.3,188,495.3,182.5z M615.8,239.7c0,7.5-2,13.6-5.9,18.3
	c-4.3,4.9-10.1,7.4-17.3,7.4h-33.7c-7.3,0-13-2.4-17.1-7.2c-4.1-4.8-6.2-10.9-6.2-18.3v-75.8c0-7.4,2.1-13.5,6.2-18.3
	s9.8-7.2,17.1-7.2H592c7.7,0,13.6,2.4,17.8,7.1c4.1,4.8,6.2,11.1,6.2,18.9l-22.5,5.8c0.1-6.2-3.1-9.3-9.5-9.3h-17.5
	c-5.6,0-8.4,2.7-8.4,8v66.3c0,5,2.7,7.6,8.2,7.6h19.1c5.4,0,8-2.6,8-7.7v-11.8h-16.8V201h39.2L615.8,239.7L615.8,239.7z
	 M713.8,239.7c0,7.5-2,13.6-5.9,18.3c-4.3,4.9-10.1,7.4-17.3,7.4h-33.7c-7.3,0-13-2.4-17.1-7.2c-4.1-4.8-6.2-10.9-6.2-18.3v-75.8
	c0-7.4,2.1-13.5,6.2-18.3s9.8-7.2,17.1-7.2h33.7c7.3,0,13.1,2.5,17.3,7.4c4,4.7,5.9,10.8,5.9,18.3V239.7L713.8,239.7z M691.2,235.3
	v-66.8c0-5-2.7-7.5-8-7.5h-19.1c-5.5,0-8.2,2.5-8.2,7.5v66.8c0,5,2.7,7.6,8.2,7.6h19.1C688.7,242.9,691.2,240.4,691.2,235.3z
	 M811.8,265.4h-21L754,191.8v73.6h-22.5V138.5h21.2l36.6,73.4v-73.4h22.5L811.8,265.4L811.8,265.4z M909.8,265.4h-23.3l-4.8-21.2
	h-24.1l-4.8,21.2h-23.3l29.4-126.9h21.4L909.8,265.4L909.8,265.4z M876.5,221.7l-6.9-30l-6.9,30H876.5z M1007.8,239.7
	c0,7.7-2.1,13.9-6.3,18.6c-4.2,4.7-9.9,7.1-17,7.1h-33.7c-7.2,0-12.9-2.4-17-7.1c-4.2-4.7-6.3-10.9-6.3-18.5V138.5H950v96.9
	c0,5,2.7,7.6,8.2,7.6h19.1c5.4,0,8-2.5,8-7.6v-96.9h22.5L1007.8,239.7L1007.8,239.7z M1105.8,161h-28.9v104.4h-22.5V161h-28.9v-22.5
	h80.3V161L1105.8,161z M1203.8,239.4c0,7.8-1.9,14-5.8,18.5c-4.3,5-10.7,7.6-19.3,7.6h-31.5c-7.4,0-13.2-2.3-17.4-7
	c-4.2-4.7-6.3-10.9-6.3-18.9l22.5-5.6c0,6,2.8,9,8.5,9h18c5.9,0,8.8-2.8,8.8-8.5v-8c0-3.1-0.5-5.4-1.4-6.7c-1-1.4-2.9-2.5-5.8-3.2
	l-29.2-5.8c-14.2-3.7-21.4-12.3-21.4-25.7v-21c0-7.2,2-13.2,6.1-18.1s9.8-7.3,17.2-7.3h33.1c8.1,0,14.4,2.7,18.6,8.2
	c3.5,4.7,5.3,10.7,5.3,17.8l-22.5,5.8c0-3.3-0.7-5.7-2-7.1s-3.8-2.2-7.5-2.2h-17.5c-5.6,0-8.4,2.7-8.4,8v11.2c0,2.7,0.4,4.7,1.3,5.9
	c0.9,1.3,2.6,2.3,5.3,3.1l30.2,5.9c7.2,1.7,12.4,4.5,15.6,8.4c3.6,4.3,5.5,10.5,5.5,18.6L1203.8,239.4L1203.8,239.4z"/>
<g>
	<g>
		<path class="st0" d="M133.2,299.2c-4.8,0-9.6-0.2-14.1-0.7h0c-1.4,0-30-0.8-65.9-48.8c-4.1-6.3-5.3-10.9-3.8-13.8
			c0.4-0.8,1.7-2.6,4.7-2.6c2,0,4.5,0.9,7.8,2.7c0.5,0.2,11.6,5.6,27.9,8.6c-12.4-7.3-27.3-18.3-37.8-33.4
			c-0.3-0.5-9.2-12.5-6.4-27.2c1.6-8.7,7-16.4,15.8-22.8c-2.5-2.7-5.8-6.7-9-11.4c-8.9-13.1-12.6-25.9-10.7-37.1
			c0.3-3.2,10.6-30.2,45.6-52.6c0.2-0.2,33.5-22.3,87.6-29.8c0.7-0.1,7.1-1,18.5-1c2.7,0,5.7,0,8.9,0.2c1.7,0.1,3.5,0.1,5.5,0.2
			c15.7,0.5,39.3,1.2,68,8.9l12.9,3.7l-11.3,7.6C277,50,249.3,68,241.9,91.1c-5.6,17.5-2.2,38,10.1,60.8l3.6,6.6l-2,0.6l1.4,1.1
			c2.5,2,15,12.5,14.2,22.6c-0.1,1.4-0.5,2.8-1.1,4c0.6,0.6,1.1,1.3,1.4,2.2c0.5,0.9,1.2,3.4-0.7,7.1c-0.3,0.7-8.3,18.3-24,32.3
			c7.7,3.8,23.4,12.7,36.2,26.4c2.3,2.8,3.3,7,0.1,9.6c-1.1,0.9-2.8,1.4-7.8,1.4l-0.6,0c-0.3,0-0.8,0-1.7,0c-6.6,0-30.3,1-56.8,13.3
			C213.6,279.2,176.2,299.2,133.2,299.2z"/>
	</g>
	<g>
		<g>
			<path class="st0" d="M70.3,161.2c0,0-26.3-24.1-22.4-47.8c0,0,7.9-26,42.9-48.4c0,0,33.3-21.7,85-28.8c0,0,37.4-8.3,98.4,8.1
				c0,0-67.2,37-27.6,110.4c0,0-38.3,12.1-89.9-9.1c0,0-65.4-32-73.5,7.4L70.3,161.2z"/>
			<path class="st1" d="M108.8,250.1c-27.9-0.5-48.8-11-48.8-11c-14.7-8.2-4.1,8.3-4.1,8.3c35.5,47.4,63.4,47.4,63.4,47.4
				c48.3,5.1,93-19.1,93-19.1c32-14.8,60.1-13.6,60.1-13.6c5.3,0.1,6.1-0.6,6.1-0.6c1.9-1.6-0.4-4.4-0.4-4.4
				c-17.3-18.6-40.3-28-40.3-28c18.1-13.9,27.5-34.8,27.5-34.8c1.5-3,0.6-4.2,0.6-4.2c-0.7-2.9-5.6-0.9-5.6-0.9
				c15.1-8.3-7.7-26.4-7.7-26.4c-64.9,15.3-106.3-18.9-106.3-18.9l-2.5-5.5l-18.7-4.7l-41.1,16.1l-16.4,11.2
				C34.4,181.5,55,209.1,55,209.1C73.9,236.4,108.8,250.1,108.8,250.1z"/>
			<g>
				<path class="st2" d="M175.6,66.9l9.8-19l-1.9,0.1c-45,2-50.7,7.5-50.9,7.7l-0.2,0.1l-13,18.6l6.7-0.6l-22.2,33.7l-7.6,1.3
					l-7.4,21.9l2-0.5c36.9-9.2,79.2,3.4,79.7,3.6l1.4,0.4l0.8-22.9l-7.5-1.1c1.2-29.3,1.9-40.5,3-43.2H175.6z M166.2,65.6
					c-0.1,0.3-2.4,8.9-3.2,45.5l0,1l7.5,1.1l-0.7,18c-4.4-1.2-18.1-4.7-36.1-6l2.2-17.8l7.8,0.4l0.1-2.2l-17.7-0.9l-1.1,2.2l8.6,0.4
					l-2.8,17.4c-3.3-0.2-6.8-0.1-10.2-0.1c-9.2,0-18.9,0.8-28.3,2.9l5.7-16.8l7.2-1.2l25.3-38.4l-6.9,0.6L134,57.3
					c1.2-0.6,8.9-5.3,47.7-7.1l-7.4,14.4h-7.9L166.2,65.6z"/>
				<path class="st2" d="M145.5,89.8l2.1-17.2l-12.7,17.2H145.5z M143.5,87.6h-4.3l5.1-6.9L143.5,87.6z"/>
			</g>
			<path class="st1" d="M172.8,62.1l4.3-8.9c-27.1,0.6-41.4,5.8-41.4,5.8l-5.5,7.9l10.1-2.2c-14.2,15.9-32.1,47-32.1,47l-7.9,1.4
				l-3.2,9.5c10.3-2.5,31.1-1.1,31.1-1.1l1.7-10.1l-10.9-0.2l5.3-9.7c16.1-0.4,23.6,0.9,23.6,0.9l0,10.2l-9.1-0.7l-0.9,10.4
				c0,0,14.5,0.6,28.9,4.8c0,0,0.4-11.4,0.4-11.4l-6.4-1.1c-1.1-27.8,3.2-52.2,3.2-52.2H172.8z M148,93.3h-17.8
				c5.5-12.2,19.9-26.7,19.9-26.7L148,93.3z"/>
			<path class="st0" d="M225.8,240.4c-7.4-3-12.2-11.4-12.2-11.4l-10.3-20c31.9-5.2,40.7-11.9,40.7-11.9c-20.7,6-41.7,8.2-41.7,8.2
				l1.2-3.8l-5.4-10.8l-7.6-2.6l-3.1,6.5l5.2,11.9l-9.7,0.8l0.8-4.4l-4.6-10.1l-8.5-3.6l-3.4,7.3l5.2,11.4l-9.9,0.3l1.4-4.1
				l-5.8-11.3l-8.2-2.1l-3.6,6.4l5.3,11.8c-7.6,0-10.8,0-10.8,0l1.8-4.9l-4.8-10.6l-9-2.7l-3.9,6.9l4.7,11.3
				c-37-0.4-67.2-10.1-67.2-10.1c23.4,14.2,75.9,14.7,75.9,14.7l16.7,31.2c3.1,5.8,1.7,11.4,1.7,11.4c-41.4,15.4-89-5.5-89-5.5
				c-2.5-1-3-0.6-3-0.6c-0.7,0.3,0.6,1.4,0.6,1.4c16.4,15,54.6,16.9,54.6,16.9c25.3,0.6,45.4-7.4,45.4-7.4
				c6.8-2.7,16.9-6.3,16.9-6.3c46.2-15.4,74.7-8,74.7-8C241.5,238.3,225.8,240.4,225.8,240.4z M137.7,206.9h-4.9l-4.3-9.7l1.7-3.2
				l4.4,1.3l3.9,8.9L137.7,206.9z M190.4,194.9l1.7-3.7l4.3,1.6l3.9,8.4l-0.8,3.5l-4.2,0.3L190.4,194.9z M170.4,196.3l1.7-3.5l5,2.1
				l3.1,7.7l-0.5,3.3l-4.8,0.2L170.4,196.3z M149.9,197.2l1.6-3.2l4.6,1.5l4,8.7l-0.8,2.9h-4.9L149.9,197.2z M174.7,250.9l-4.4,1.5
				c-4.4-1.2-10.4-9-10.4-9l-16.5-30.2h16l13.8,26.2C176.7,245.9,174.7,250.9,174.7,250.9z M192.8,245.3l-4.8,1.5
				c-4.2-1.8-9.4-7.8-9.4-7.8l-14.8-26.5l15.6-0.6l11.9,22.2C194.6,240.4,192.8,245.3,192.8,245.3z M211.7,241.6l-5,0.9
				c0,0-7.3-2.9-11.8-10.8l-11.1-20.5l15-1.7l10.2,19.1C209,228.7,213.1,235.7,211.7,241.6z"/>
			<path class="st2" d="M60.2,244.1c0,0,42.4,25.4,94.3,10.4c0,0,1.1-2.3-1-7.2C153.5,247.4,112.4,262.2,60.2,244.1z"/>
			<path class="st2" d="M163.5,244l7.9-3c0,0,2,3.5,1.8,8l-2.4,0.8C170.8,249.8,166.3,247.4,163.5,244z"/>
			<path class="st2" d="M180.9,237.6l8.1-2.3c0,0,2.2,3.1,1.9,8l-2.8,0.6C188.2,243.9,183.9,242,180.9,237.6z"/>
			<path class="st2" d="M198.5,232.3l9.1-1.6c0,0,2.1,3.8,2,9.3l-2.5,0.4C207.1,240.4,201.8,237.5,198.5,232.3z"/>
			<path class="st2" d="M217.6,230.2c0,0,3.1,5.8,9.1,8.1c0,0,9.9-2.1,23.4,3.1C250.1,241.4,243,232.3,217.6,230.2z"/>
			<path class="st2" d="M71.5,259c0,0,27.3,16.5,71.8,10.2c0,0,15.4-2.7,28-7.7c0,0,26.1-11.8,56.9-14.2c0,0,18.5-1.5,31.7,3.5
				c0.8,0.2,2.6,1.3-1.3,0.5c0,0-17.6-4.1-52.1,4.6c0,0-17.1,5.3-30.6,11.9c0,0-21,10-43.7,10.6S84.1,272.9,71.5,259z"/>
			<path class="st0" d="M92.2,277.6c0,0,33.6,15.3,75.6,3.3c0,0,17.9-5.4,29-10.8c0,0,23.3-11.1,43.2-13.9c0,0,6.4-1.1,14.9-1.5
				c0,0,3.3-0.1,3.3-0.3c0-0.6-3.6-1.1-3.6-1.1s-26.5-5.2-58.2,8.7c0,0-31.2,14-47.5,17.1c0,0-17.4,5.5-54.3-1.7
				C94.7,277.4,92.2,276.7,92.2,277.6z"/>
			<path class="st2" d="M116.6,288.3c0,0,33.2,8.9,70-6.4c0,0,19.4-8,22.4-9.5c0,0,9.8-5,35.6-11.2c0,0,9.1-1.9,6.2-2.6
				c0,0-12.7-3.9-46,10.6c0,0-22.4,10.2-35.9,13.5c0,0-26.2,7.9-49,5.4C120,288.1,116.6,287.5,116.6,288.3z"/>
			<path class="st1" d="M274.8,41.9c-31.8-8.6-57-8.4-72.6-9c-17-0.6-26.4,0.7-26.8,0.8c-51.1,7.1-84,27.7-86.1,29.3
				c-34.3,22-43.8,48.2-44,50.2c-1.7,10.3,1.8,22.2,10.1,34.5c6.2,9.1,12.8,15.2,13.1,15.5l1.5,1.3l15.4-9.8l0.2-1.1
				c1.5-7.1,5-12,10.7-14.8c19.9-9.8,58.8,9,59.2,9.2l0.2,0.1c51.9,21.3,90.1,9.7,91.7,9.2l3-0.9l-1.5-2.8
				c-12.8-23.7-16.3-45.1-10.3-63.6c7.9-24.4,36.6-43.1,36.8-43.2l4.9-3.3L274.8,41.9z M233.6,88.3c-6.2,19.1-3.1,40.9,9.1,64.8
				c-4,0.9-11.7,2.3-22.1,2.5c-14.3,0.3-36.9-1.6-63-12.3c-2.6-1.3-41.7-19.9-63.6-9.2c-6.8,3.4-11.6,9.9-13.5,18.4l-9.4,5.7
				c-5.3-5.3-23.8-25.6-20.7-44.5l0-0.2c0-0.2,8.6-25.2,41.7-46.4l0.1-0.1c0.3-0.2,25.5-20.9,69.8-26.3c9.2-1.1,24.9-2.9,50.5-2.8
				c14.6,0.4,33.1,1.8,54.9,7.3C259.8,50.5,239.7,69.5,233.6,88.3z"/>
		</g>
	</g>
</g>
</svg>
