<?xml version="1.0" encoding="utf-8"?><svg xmlns="http://www.w3.org/2000/svg" width="1722" height="328.4" viewBox="0 0 1722 328.4"><style>.st0{fill:#FFFFFF;} .st1{fill:#CAC8C8;} .st2{fill:#A4A9AD;} .st3{fill:#794210;} .st4{fill:#8B2332;} .st5{fill:#003A70;} .st6{fill:#2B5134;} .st7{fill:#FFB819;} .st8{fill:#FFFFFF;stroke:#FBB420;stroke-width:3.6;stroke-miterlimit:10;} .st9{fill:#FFFFFF;stroke:#FBB420;stroke-width:1.44;stroke-miterlimit:10;} .st10{fill:#F15623;} .st11{fill:#AC162C;} .st12{fill:#A93439;} .st13{fill:#5F8FB1;} .st14{fill:#0D2240;} .st15{fill:#BE955B;} .st16{fill:#B2B3B2;} .st17{fill:#006241;} .st18{fill:#CF0A2C;} .st19{fill:#E63630;} .st20{fill-rule:evenodd;clip-rule:evenodd;fill:#E63630;}</style><g id="Layer_1"><path class="st0" d="M85.7 173.7c3.9-8.5 1.7-10-7.1-10l-8 17.6h7c2.5 0 5.3-1.4 8.1-7.6zm-8.1 5.5h-3.7l6.1-13.4c5.4 0 7 .2 3.8 7-2 4.5-4 6.4-6.2 6.4z"/><path class="st0" d="M123.8 267.3c28.4 0 47.9-24.7 56-49.1h-33.2S141 233 129 233c-6.3 0-8.3-7.3.8-27.3 6.2-13.6 14.9-22.2 21.5-22.2 9.8 0-1.5 31.7-1.5 31.7h31.7l18.1-39.8c5.2 2.7 11.2 5.3 17.4 5.3 17.7 0 22.7-13.9 22.7-13.9l-4.3-2.4c4-9.4 5.3-14.8 3.3-19.6 3-2.9 6-7.2 6.6-12.7 0 0 18.6-11.8 18.6-28.7 0-5.5-11.5-17.3-32.6-23.8-4.5-4.9-19.8-18.3-49.9-18.3-12.7 0-24.6 1.6-33.5 3.3-10.2-2.6-18.4-3.5-24.9-3.5-16.6 0-21.6 3.8-21.6 10.6 0 7.3 2.9 12.5 2.9 12.5-7.7 4.7-16.6 10.8-21.4 14.2H47.8l-14.2 31.1H48l-21.2 46.6c-.6 1.3-2.4 3.1-15.8 3.1l-14.2 31.1H79c-6 30.9 11.5 57 44.8 57zM.1 208.2l12.3-26.9c8.8 0 14.8-.9 16.4-4.3l22.6-49.5H36.9l12.2-26.9h34.4c5-3.5 15.3-10.7 23.5-15.6 0 0-3.6-5.3-3.6-13 0-8.3 11.9-8.8 19.8-8.8 11.7 0 24.5 3.5 24.5 3.5 8.8-1.7 20.8-3.4 33.6-3.4 30.4 0 45.1 14 48.8 18.1 19 5.6 31.6 17.2 31.6 22 0 16.3-18.5 27.5-18.5 27.5-.7 11.7-13.1 17.5-13.1 17.5s3.6-7.7 1.9-13.3c-2 .4-4.1.6-6.4.6-5 0-12.6-4-18.1-4-5.5 0-5.6 1.1-5.6 1.1 0 2.8.1 5.2.2 7.3 12.7 2.4 15.3 10.8 22.2 18.4 1.4-1.1 8.2-5.4 12.8-11 0 0 1.6 5.1-4.7 17.8l4.3 2.4s-5 10.9-20 10.9c-6.4 0-12.8-3-18.4-6.1l-18.5 40.6h-27.4s11.1-31.7-1.5-31.7c-7.6 0-16.9 9.3-23.4 23.4-7.6 16.8-9.5 30.3 1.1 30.3 10.4 0 16.6-9.7 18.9-14.8h28.9s-15 44.9-53 44.9c-37.8 0-48.9-33.6-42.1-57H.1zm232.4-58.7l-7.7 6.2c-6.3-7.5-7.7-13.7-20.5-17.3-.1-1.3-.1-2.7-.1-4.3.6-.1 1.7-.3 3.5-.3 4.8 0 12.9 4 18.1 4 1.6 0 3.1-.1 4.7-.3.5 6.3-4.6 15.3-4.6 15.3l6.6-3.3z"/><path class="st0" d="M96.8 131.9c1.9-4.3 1.2-4.5-.9-4.5h-.7l-4 8.8c1.5 0 3.7-.2 5.6-4.3zm104.4 54.8h.8v-1.8h.6l.8 1.8h.9l-.9-1.9c.5-.2.9-.7.9-1.2 0-.7-.6-1.3-1.3-1.3h-1.9v4.4zm.8-3.6h1c.3 0 .5.2.5.5s-.2.5-.5.5h-1v-1z"/><path class="st0" d="M198.9 184.5c0 2.1 1.7 3.9 3.9 3.9 2.1 0 3.9-1.7 3.9-3.9 0-2.1-1.7-3.9-3.9-3.9s-3.9 1.8-3.9 3.9zm6.9 0c0 1.7-1.4 3-3 3-1.7 0-3-1.4-3-3 0-1.7 1.4-3 3-3s3 1.3 3 3z"/><path class="st10" d="M253.6 98.5c-1.3.5-5.3 2.5-5.3 6.9 0 3.8 3.3 8.8 1.7 14.8 5-5.6 7.7-12.2 7.7-16.9.1.1-1.1-2-4.1-4.8zm-50.9 45.7c.7 5.3 1.9 7.9 3.2 9.7.8-.1 5.4-1 5.4-1s1 4.7 1.1 5.4c1.6 0 5.9-.1 5.9-.1s1.4 3 1.5 3.3c.4-.2.9-.5 1.3-.8-4.8-5.1-7.9-14.1-18.4-16.5zM79 155.3h-5.7l-15.6 34.3h20c5.4 0 11.3-2.7 15.8-12.5 7.5-16.6-2.2-21.8-14.5-21.8zm10.4 20.1c-3.7 8.2-8.1 9.9-11.8 9.9H64.4L76 159.8h3c10.2-.1 16.1 3.1 10.4 15.6zm6.5-56.3h-6.1l-11.7 25.7h10.1c11.3 0 14.2-4.8 16.2-9.4 5.5-12.1-2-16.3-8.5-16.3zm4.5 14.4c-2.6 5.7-5.9 6.8-12.2 6.8h-3.3l7.7-16.9h3.3c4.1.1 8.3 1.7 4.5 10.1z"/><path class="st10" d="M250.7 95.9c-4.7-3.7-12-8.1-22.8-11.1 0 0-13.2-17.6-46.5-17.6-9.9 0-18.2.8-24.9 1.9 3.2 1 6.5 2.2 9.9 3.5l-1.4 3.7c-41.7-15.9-57.3-6.5-57.3-6.5-2.6 17.6 22.5 32.3 22.5 32.3l-2 3.4c-.7-.4-12-7.1-19-17.2-8.7 5.1-20.1 13.1-24.4 16.2H51.7l-8.6 18.9h10.3c2.3 0 3.4 1.7 2.4 3.8l-23.4 51.4c-2.9 6.4-13.5 6.6-17.5 6.6l-8.6 18.9h80.9c-9.5 24.8 1.2 57 36.8 57 24.4 0 40.5-21.8 46.9-36.9h-20.5S143.3 239 129 239c-13.3 0-14.5-14.4-4.7-36 7-15.3 17.2-25.8 27-25.8 17.1 0 7 31.7 7 31.7h19.4l19.2-42.1c6.1 3.4 13.4 7.6 20.2 7.6 10 0 14.1-5.6 14.1-5.6l-3.7-2.1 4.5-9.3c-8.5 7.2-13.9 9.3-13.9 9.3l-2.2-4.7-6.6.1-1-4.8-3.9.7c-3-3.5-6.2-7.5-6.2-25.5 0-4 .8-5.9 3.8-5.9 1.5 0 5.6 1 8 1.6-1.8-2.5-2.9-5.9-2.9-10.5 0-11.2 6.4-14.7 10.9-15.8v-3.8c0-1.1.9-2 2-2s2 .9 2 2v7.3s-10.9-.8-10.9 12.3c0 5.7 2.8 13.7 14.7 13.7 3.4 0 6.5-.5 9.4-1.5 1.8 4.4.5 9.8.5 9.8s3.4-4.5 6-12.8c1.8-1.1 3.4-2.2 4.9-3.5.4-1.2.8-3 .8-5.3 0-5.6-2.8-10.2-2.8-13 0-2.8 3.9-4.7 6.1-9.2zm-105.5 46.7s5.3 11.8 11.3 16.3c0 0-7.4 2.2-13.8-15.2l2.5-1.1zm29.5 62.1h-10.9s8.3-31.7-12.6-31.7c-12.5 0-23.9 12.8-31 28.3-12.5 27.4-6.8 42.2 8.7 42.2 15.6 0 24-14.8 24-14.8h10.9s-13.8 28.2-39.7 28.2c-32.5 0-42.6-29.9-31.5-54.1.5-1 .9-2 1.4-3H13.1l4.6-10.1s14.4 0 18.6-9.2l23.8-52.2c4.2-9.2-1.2-9.2-1.2-9.2h-9l4.6-10.1h58.9c12.4 0 19.4 15.6 13.7 28.1-4.7 10.3-14 14-14 14s8.3 3 9.7 13.1c6.5-3.2 14.2-5 23.7-5 16.3 0 23.2 9.1 28.9 9.1 5 0 7.4-5.2 7.4-5.2h10.9l-19 41.6zm45.2-112.2c-.9.1-1.8-.6-1.9-1.5l-.4-3.4c-10.9-3-16.5-.8-16.5-.8l-1.4-2.4c14.5-4.4 21 .2 21 .2l.7 6c.1 1-.6 1.8-1.5 1.9z"/><path d="M100.4 133.5c3.8-8.4-.4-10.1-4.5-10.1h-3.3l-7.7 16.9h3.3c6.3 0 9.6-1 12.2-6.8zm-9.2 2.7l4-8.8h.7c2.1 0 2.9.2.9 4.5-1.9 4.1-4.1 4.3-5.6 4.3zM79 159.7h-2.9l-11.6 25.5h13.2c3.7 0 8-1.7 11.8-9.9 5.6-12.4-.3-15.6-10.5-15.6zm6.7 14c-2.8 6.2-5.6 7.6-8.1 7.6h-7l8-17.6c8.9 0 11 1.5 7.1 10zm70.7-14.8c-6-4.5-11.3-16.3-11.3-16.3l-2.6 1.1c6.6 17.4 13.9 15.2 13.9 15.2z"/><path d="M123.9 265.2c37.9 0 53-44.9 53-44.9H148c-2.3 5.1-8.5 14.8-18.9 14.8-10.6 0-8.7-13.6-1.1-30.3 6.5-14.2 15.8-23.4 23.4-23.4 12.7 0 1.5 31.7 1.5 31.7h27.4l18.5-40.6c5.6 3 12 6.1 18.4 6.1 15 0 20-10.9 20-10.9l-4.3-2.4c6.3-12.7 4.7-17.8 4.7-17.8-4.6 5.6-11.4 9.9-12.8 11-6.9-7.6-9.5-15.9-22.2-18.4-.1-2.1-.2-4.5-.2-7.3 0 0 .1-1.1 5.6-1.1s13.1 4 18.1 4c2.2 0 4.3-.2 6.4-.6 1.7 5.6-1.9 13.3-1.9 13.3s12.5-5.8 13.1-17.5c0 0 18.5-11.2 18.5-27.5 0-4.7-12.6-16.4-31.6-22-3.7-4.1-18.3-18.1-48.8-18.1-12.8 0-24.7 1.7-33.6 3.4 0 0-12.8-3.5-24.5-3.5-8 0-19.8.5-19.8 8.8 0 7.7 3.6 13 3.6 13C99.3 89.8 89 97 84 100.6H49.2L37 127.5h14.4L28.8 177c-1.6 3.4-7.6 4.3-16.4 4.3L.1 208.2h81.7c-6.8 23.4 4.2 57 42.1 57zm97.3-104.5c-.5.3-.9.6-1.3.8-.1-.3-1.5-3.3-1.5-3.3s-4.2.1-5.9.1c-.1-.7-1.1-5.4-1.1-5.4s-4.6.8-5.4 1c-1.3-1.8-2.5-4.4-3.2-9.7 10.4 2.4 13.5 11.4 18.4 16.5zm36.6-57.3c0 4.7-2.7 11.2-7.7 16.9 1.5-6-1.7-11.1-1.7-14.8 0-4.4 3.9-6.3 5.3-6.9 2.9 2.7 4.1 4.8 4.1 4.8zM6.3 204.2l8.6-18.9c4 0 14.6-.3 17.5-6.6l23.4-51.4c.9-2.1-.1-3.8-2.4-3.8H43.1l8.6-18.9h33.1c4.2-3 15.7-11 24.4-16.2 7.1 10.1 18.3 16.8 19 17.2l2-3.4s-25.1-14.7-22.5-32.3c0 0 15.6-9.4 57.3 6.5l1.4-3.7c-3.4-1.3-6.7-2.4-9.9-3.5 6.8-1.1 15-1.9 24.9-1.9 33.3 0 46.5 17.6 46.5 17.6 10.8 3 18.1 7.4 22.8 11.1-2.2 4.5-6 6.4-6 9.4 0 2.8 2.8 7.3 2.8 13 0 2.4-.4 4.1-.8 5.3-1.5 1.3-3.1 2.5-4.9 3.5-2.6 8.4-6 12.8-6 12.8s1.3-5.4-.5-9.8c-2.9.9-6 1.5-9.4 1.5-11.9 0-14.7-7.9-14.7-13.7 0-13 10.9-12.3 10.9-12.3v-7.3c0-1.1-.9-2-2-2s-2 .9-2 2v3.8c-4.5 1.1-10.9 4.6-10.9 15.8 0 4.6 1.2 8 2.9 10.5-2.4-.6-6.6-1.6-8-1.6-3 0-3.8 1.8-3.8 5.9 0 18 3.2 22 6.2 25.5l3.9-.7 1 4.8 6.6-.1 2.2 4.7s5.4-2.1 13.9-9.3l-4.5 9.3 3.7 2.1s-4.1 5.6-14.1 5.6c-6.8 0-14.1-4.2-20.2-7.6l-19.2 42.1h-19.4s10.1-31.7-7-31.7c-9.8 0-20 10.5-27 25.8-9.8 21.5-8.6 36 4.7 36 14.3 0 21.4-14.8 21.4-14.8H171c-6.4 15.1-22.4 36.9-46.9 36.9-35.5 0-46.3-32.2-36.8-57h-81z"/><path d="M217.6 87.6l.4 3.4c.1.9.9 1.6 1.9 1.5.9-.1 1.6-.9 1.5-1.9l-.7-6s-6.5-4.6-21-.2l1.4 2.4s5.7-2.2 16.5.8zm-125 115.1c-11 24.2-1 54.1 31.5 54.1 25.9 0 39.7-28.2 39.7-28.2H153s-8.4 14.8-24 14.8-21.2-14.8-8.7-42.2c7.1-15.5 18.5-28.3 31-28.3 20.9 0 12.6 31.7 12.6 31.7h10.9l19-41.7h-10.9s-2.4 5.2-7.4 5.2c-5.7 0-12.6-9.1-28.9-9.1-9.5 0-17.2 1.8-23.7 5-1.4-10-9.7-13.1-9.7-13.1s9.3-3.7 14-14c5.7-12.5-1.2-28.1-13.7-28.1H54.6L50 118.9h9s5.4 0 1.2 9.2l-23.8 52.2c-4.2 9.2-18.6 9.2-18.6 9.2l-4.6 10.1H94c-.5 1.2-.9 2.1-1.4 3.1zm-2.8-83.6h6.1c6.5 0 14 4.3 8.5 16.3-2.1 4.6-5 9.4-16.2 9.4H78.1l11.7-25.7zm3.6 58.1c-4.4 9.7-10.4 12.5-15.8 12.5h-20l15.6-34.3H79c12.3-.1 22 5.1 14.4 21.8z"/><path class="st10" d="M384.8 78.9H444c27.7 0 43.3 12.9 37.4 39.9-3.9 18.8-17 33.5-33.1 36.5v.5c11.6 1.8 28.3 7 21.3 40.1-4.1 19-17.9 44.9-63 44.9h-56.2l34.4-161.9zm9.5 133.7h11.6c15.4 0 22.7-9.7 25.2-21.1 3.4-15.9-3.4-22.7-15.2-22.7h-12.2l-9.4 43.8zm14.7-69.1h10.4c13.1 0 20.2-7.5 22.7-19 1.8-8.4-.9-17.5-14.7-17.5h-10.7l-7.7 36.5zm161.6-8.4c5-23.6 4.5-34-8.2-34-15.2 0-19.7 14.5-28.6 56.9-10.2 48.1-11.3 60.5 4.5 60.5 14.1 0 19-16.1 24.7-41.3h36.7l-1.4 5.7c-7.5 34.9-22.7 61-69.8 61-48.7 0-44.9-36.5-34.5-85.2 8.8-41.5 19.9-83 73.9-83 33.5 0 48.7 14.5 40.6 52.6l-1.4 6.8h-36.5z"/><path class="st0" d="M636.6 78.9h38.1l-27.9 131h55.1l-6.6 30.8h-93.2l34.5-161.8zm105.6 0h38.1l-34.5 161.9h-38.1l34.5-161.9zm80.5 165c-50.1 0-49.9-32.6-39-84.1 10.9-51.5 24.7-84.1 74.8-84.1 54 0 48.5 39.2 39 84.1-9.5 44.9-20.8 84.1-74.8 84.1zm5.2-25.4c15.4 0 20.6-14.3 30.1-58.7 9.5-44.4 10.2-58.7-5.2-58.7-15 0-20.2 14.3-29.7 58.7-9.5 44.5-10.1 58.7 4.8 58.7zM934.7 78.9h43.8l8.8 105.2h.5l22.4-105.2h35.4l-34.5 161.9H968l-9.5-111.5h-.5l-23.8 111.5h-34l34.5-161.9zm141.9 112.4l-1.1 5.7c-2.5 12.2-1.1 21.5 12 21.5 13.4 0 19.3-10 21.3-19.3 7.5-34.9-66.4-15.4-53.5-75.9 5.4-25.8 24-47.6 63.2-47.6 38.1 0 47.6 19.3 42.2 44.2l-.7 3.9h-36.7c1.6-7.7 1.8-13.4.5-17-1.6-3.9-4.8-5.7-10.4-5.7-9.5 0-16.3 5.7-18.8 17.5-7.3 33.8 66 16.8 53.7 73.9-7.7 36.7-31.3 51.5-66.2 51.5-27.7 0-51.5-8.4-44.2-42.2l2-10.4h36.7z"/></g></svg>