<?xml version="1.0" encoding="utf-8"?><svg id="Layer_1" xmlns="http://www.w3.org/2000/svg" viewBox="-4326 1228.6 1722 328.4"><style>.st0{fill:#FFFFFF;} .st1{fill:#231F20;}</style><path class="st0" d="M-3996.9 1329l-17.2-12.2c-6.2-4.4-5.8-11.7-12.7-13-1.1 3.1 2.4 8.3.7 11.8-15.7 3.2-26.7-2.4-29.3-2.4-4.6 0-3.3 4.5-3.3 4.5s-1.5 1.9-5 1.9c-4 0-6-1.3-10.5-1.3-2.2 0-2.4 2.1-2.4 3.4 0 1.3-.8 2.1-.8 2.1-24.8-7.4-27.6 4.5-27.6 4.5 9.8-2 13.2 3.5 13.2 3.5-9.3 2-15 .4-18.9 2.8-1.9 2.8 3 3.2-.4 5.6-13.1 1.2-39.9-.7-64.9-.7-15.3 0-25.6 9.3-38.5 21-7.4-1.9-6.6-12.4-14.4-12.4-4.8 0-23 15.2-73.4 26.1 0 0 10.2 7.9 25.5 7.9 22.8 0 31.3-15.5 38.8-15.5 4.5 0 9.5 4.8 14 4.8 3.8 3 4.6 2.2 6.9 17.7 5.6 38.5 52.6 27 64.4 58.9 0 0 18.8 7.4 38.7 11.4l.6 5.9c3 6.5-5.8 6.1-9.8 8 0 0 2.1 8.6 8.1 12.7 3-7.3 13.1-6.8 14.1-15.5 9.5 1 3.8 14.7 13.9 15.4 0 0 .6 4.8 5.7 4.8 5.1 0 6.8-1.6 12.1-1.1 1.8-2.6-2.2-4.9-2.2-9.6 0 0 1.7-1 1.7-3.2-6.4-10.4-23.3-13.9-17.4-31.7 0 0 5.5-2.7 18.4-1.9 6.1-2.4 17 2.7 22-1.2 2.9-2.3 4.8-5.4 4.8-8.3 0-4.8-13.5-23.1-20.8-38.6-.5-5.9 1-14.8 1-21.7 0 0 23.8-18.9 41.6-18.9 3.5 11.5 23.8 8 23.8 20.2 0 1.1 1.4 2.4 3.9 2.4s4.6-1 8.4-1c0 0 7.7-4.5 6.8-11.6-15.5-14.3-19.6-35.5-19.6-35.5zm-106.3 103.4l-3.1-6.1s-5.4 3.1-11.1 7.9c2.3 5.2 5.3 3.6 6.7 3.6 3.5 0 4.8 4.1 8.7 2.5 2.6 0-1.6 7.3-4.6 6.7-17.6-2.8-50.1-32.2-40-42.3 0 0 20.9 5.9 46.2 7.1 6.8 3.3 4 14.5 6.8 19.1 1 2.1-8.6 3.5-9.6 1.5zm41.3-2.3c.3.3-.1 1-.4.9-10-.5-16.7 1.3-16.7 1.3-.8 0-1.9-1.3-1.8-1.6l4.1-15.9.5-.4h1.9l12.4 15.7zm925.4-66.1h-23.5c-6.7 0-12.9 2-18.2 5.5-9 6-15.1 16.2-15.1 27.7v56.2c0 18.3 14.9 33.2 33.2 33.2h56.7v-30.9h-29.6v5.9h-20.6c-5.6 0-10.2-4.6-10.2-10.2v-13.6h60.4v-40.6c.1-18.2-14.8-33.2-33.1-33.2zm3.7 48.9h-30.8v-13.6c0-2 .6-3.9 1.6-5.4 1.8-2.9 5-4.8 8.6-4.8h10.4c5.6 0 10.2 4.6 10.2 10.2v13.6zm-206.6-48.9h-23.5c-6.7 0-12.9 2-18.2 5.5-9 6-15.1 16.2-15.1 27.7v56.2c0 18.3 14.9 33.2 33.2 33.2h56.7v-30.9h-29.6v5.9h-20.6c-5.6 0-10.2-4.6-10.2-10.2v-13.6h60.4v-40.6c.1-18.2-14.8-33.2-33.1-33.2zm3.7 48.9h-30.8v-13.6c0-2 .6-3.9 1.6-5.4 1.8-2.9 5-4.8 8.6-4.8h10.4c5.6 0 10.2 4.6 10.2 10.2v13.6zm399.9 73.1c15.1-3.1 26.6-16.5 26.6-32.5v-11.8c0-8.4-6.5-17.7-14.4-20.7l-42.4-15.8c-2-.7-3.6-3.1-3.6-5.2v-.8c0-2 .6-3.9 1.6-5.4 1.8-2.9 5-4.8 8.6-4.8h20.6v5.9h22.2V1364h-49.3c-6.7 0-12.9 2-18.2 5.5-9 6-15.1 16.2-15.1 27.7v11.8c0 8.4 6.5 17.7 14.4 20.7l42.4 15.8c2 .7 3.6 3.1 3.6 5.2v.7c0 5.6-4.6 10.2-10.2 10.2h-20.6v-5.9h-29.6v30.9h56.7c2.3.1 4.5-.2 6.7-.6zm-304.4-143.2h5.9v21.2h-27.1c-6.7 0-12.9 2-18.2 5.5-9 5.9-15.1 16.2-15.1 27.7v56.2c0 18.3 14.9 33.2 33.2 33.2h56.7v-168.8h-35.5v25zm5.9 118.9h-20.6c-5.6 0-10.2-4.6-10.2-10.2v-52.2c0-2 .6-3.9 1.6-5.4 1.8-2.9 5-4.8 8.6-4.8h20.6v72.6zm-613.6-62.3l-52.6-19.3c-4-1.4-7.2-6.1-7.2-10.3V1353c0-2 .6-3.9 1.6-5.4 1.8-2.9 5-4.8 8.6-4.8h39.2v10.1h26.4v-35.1h-72.2c-6.7 0-12.9 2-18.2 5.5-9 5.9-15.1 16.2-15.1 27.7v26.6c0 11.2 8.6 23.6 19.2 27.5l52.6 19.3c4 1.5 7.2 6.1 7.2 10.3v16.8c0 5.6-4.6 10.2-10.2 10.2h-39.2v-10.1h-29.6v35.1h75.3c2.3 0 4.5-.2 6.6-.7 15.1-3.1 26.6-16.5 26.6-32.5v-26.6c.2-11.3-8.4-23.7-19-27.5zm804-35.4h-47.8v25h5.9v97.7h35.5v-25h-5.9V1389h5.8c5.6 0 10.2 4.6 10.2 10.2v13.6h29.6v-15.6c-.1-18.2-15-33.2-33.3-33.2zm-396.9 0h-62.6v25h5.9v143.9h29.6v-46.2h27.1c2.3 0 4.5-.2 6.6-.7 15.1-3.1 26.6-16.5 26.6-32.5v-56.3c0-18.2-15-33.2-33.2-33.2zm3.6 87.5c0 5.6-4.6 10.2-10.2 10.2h-20.6V1389h20.6c5.6 0 10.2 4.6 10.2 10.2v52.3zm-282.6 35.2h62.6v-25h-5.9v-64.4c0-1.2-.1-2.3-.2-3.4-.6-5.7-2.6-10.9-5.7-15.4-6-8.7-16-14.4-27.3-14.4h-49.3v30.9h22.2v-5.9h20.6c5.6 0 10.2 4.6 10.2 10.2v6l-11.5 3.6-31.8 9.9c-2.1.7-4.1 1.7-6 3.1-6.4 4.6-11.1 12.5-11.1 20.1v11.6c0 18.1 14.9 33.1 33.2 33.1zm-3.7-40.6c0-1.6.7-3.2 1.9-4.5.8-1 1.9-1.8 3-2.1l25.9-8.1v30.3h-20.6c-5.6 0-10.2-4.6-10.2-10.2v-5.4zm208.5-67.7c-6-8.7-16-14.4-27.3-14.4h-23.5c-5.2 0-10.2 1.2-14.6 3.4-4.4-2.2-9.3-3.4-14.5-3.4h-62.6v25h5.9v97.7h29.6v-87.4c0-2 .6-3.9 1.6-5.4 1.8-2.9 5-4.8 8.6-4.8h6.5c5.6 0 10.2 4.6 10.2 10.2v87.4h29.6v-87.4c0-2 .6-3.9 1.6-5.4 1.8-2.9 5-4.8 8.6-4.8h6.5c5.6 0 10.2 4.6 10.2 10.2v62.5h-5.9v25h35.5v-89.4c0-1.2-.1-2.3-.2-3.4-.6-5.9-2.7-11.1-5.8-15.6zm-272.6-48.4h-29.6v34h-9.4v25h9.4v64.4c0 18.3 14.9 33.2 33.2 33.2h19.4v-25h-12.9c-5.6 0-10.2-4.6-10.2-10.2v-62.5h23.1v-25h-23.1V1330z"/><path class="st1" d="M-3994.9 1328.6c-.1-.5-.4-1-.8-1.3l-17.2-12.2c-4.6-2.9-7.2-13.3-13.6-13.3-1.5 0-8.3 3.2-13.2 5.3-2.6 1.1-.5 7.2-.5 7.2-7.8-.7-12.6-3.2-15.1-3.2-2.3 0-7.5 2.9-13.9 5.6-1.4-.3-3-.5-4.9-.5-1.5 0-4.6 1.5-10.1 3.8-2.8-.5-5.2-.7-7.3-.7-8.5 0-26.3 7.5-26.3 13.5 0 1.7 1.4 2 1.4 2-4.4 1.5-6.3 2.8-7.1 3.6-15.1 0-37-1-52.4-1-20.2 0-40.9 19.2-40.9 19.2-3.6-3.6-4.6-10.6-12-10.6-5.6 0-23.5 15.2-73.9 26.2-3.9 2-8 3.6-9.5 4.9-1 .8-1 2.4.1 3.2.4.3 11 8.3 26.7 8.3 18.9 0 39.2-15.5 39.2-15.5 3.5.3 8.4 4.4 12.8 4.7 2.8 2 3.7 2 5.7 16 5.7 39.6 53.3 29 64.5 59.3.2.5.6 1 1.2 1.2 0 0 17.9 5.5 35.5 9.4.2 1.7.4 4.4.4 4.4 2.2 4.8-3.8 3.7-8.6 5.9-.7.3-1.2 1.1-1.2 1.8 0 0 1.8 9.3 9 14.4 1.4 1 4.8-.8 12.3-2.4.6-.1 1.1-.5 1.4-1.2 1-2.6 3.4-4.1 5.9-5.6.3 1.6 1.9 8.5 7.6 9.1 2.9 8.7 13.7 3.1 19.1 3.9 2.1 0 6.4-1.6 11.1-2.5.7.1 1.4-.3 1.9-.9 2.5-3.6-1.1-5.8-1.7-10 .8-.9 1.6-2.2 1.6-4 0-.4-.1-.7-.3-1.1-6.3-10.1-21.2-14-17.9-27.5 1.2 0 3.5.1 5.9.2 0 0 1.9-.6 4.4-.6 2.5 0 8.3 1 11.7 1 3.8 0 16.3-3.4 18.4-5.1 3.5-2.7 5.6-6.4 5.6-9.9 0-5.9-12.6-22-20.8-39.1-.4-5.7 1-13.6 1-20.1 0 0 17.7-13.5 26.3-13.5 5.1 10.8 23 8.5 23 18.1 0 2.1 2.1 4.4 5.9 4.4 2.5 0 5.1-1 8.4-1 0 0 6.2-2.6 13-4.6.4-.1 8.8-5.3 7.8-13.6-.1-.5-.3-.9-.6-1.2-14.8-13.7-19-34.2-19-34.4zm10.6 47.3c-3.8 0-5.9 1-8.4 1s-3.9-1.3-3.9-2.4c0-12.2-20.3-8.7-23.8-20.2-17.8 0-41.6 18.9-41.6 18.9 0 6.9-1.5 15.8-1 21.7 7.3 15.5 20.8 33.8 20.8 38.6 0 2.9-1.9 6.1-4.8 8.3-4.9 3.9-15.9-1.2-22 1.2-12.9-.8-18.4 1.9-18.4 1.9-5.9 17.8 11 21.3 17.4 31.7 0 2.3-1.7 3.2-1.7 3.2 0 4.8 4 7 2.2 9.6-5.2-.5-7 1.1-12.1 1.1s-5.7-4.8-5.7-4.8c-10.1-.8-4.4-14.4-13.9-15.4-1 8.6-11.1 8.2-14.1 15.5-6-4.1-8.1-12.7-8.1-12.7 4-1.8 12.8-1.5 9.8-8l-.6-5.9c-19.9-4-38.7-11.4-38.7-11.4-11.7-31.9-58.8-20.3-64.4-58.9-2.2-15.5-3.1-14.6-6.9-17.7-4.5 0-9.5-4.8-14-4.8-7.5 0-16 15.5-38.8 15.5-15.2 0-25.5-7.9-25.5-7.9 50.4-10.9 68.6-26.1 73.4-26.1 7.8 0 7 10.6 14.4 12.4 12.9-11.7 23.2-21 38.5-21 25 0 51.7 1.8 64.9.7 3.3-2.4-1.6-2.7.4-5.6 3.9-2.4 9.7-.8 18.9-2.8 0 0-3.4-5.5-13.2-3.5 0 0 2.8-11.9 27.6-4.5 0 0 .8-.8.8-2.1s.2-3.4 2.4-3.4c4.6 0 6.6 1.3 10.5 1.3 3.5 0 5-1.9 5-1.9s-1.3-4.5 3.3-4.5c2.6 0 13.5 5.7 29.3 2.4 1.8-3.5-1.8-8.7-.7-11.8 6.9 1.3 6.5 8.6 12.7 13l17.2 12.2s4.1 21.2 19.5 35.3c1 7.3-6.7 11.8-6.7 11.8z"/><path class="st1" d="M-4100.3 1411.8c-25.3-1.1-46.2-7.1-46.2-7.1-10 10 22.4 39.5 40 42.3 3 .6 7.2-6.7 4.6-6.7-3.9 1.6-5.2-2.5-8.7-2.5-1.4 0-4.4 1.6-6.7-3.6 5.7-4.8 11.1-7.9 11.1-7.9l3.1 6.1c1 2 10.6.6 9.6-1.5-2.8-4.6-.1-15.8-6.8-19.1zm-17.9 16.2c-.2.1-4.2 2.5-9 6.2-8.6-6.6-16.3-14.8-18.5-21.2 8.5 1.7 20.5 3.6 33.8 4.3 2.3 1.2 3.1 4.2 3.6 7.5l-9.9 3.2zm42-13.6l-.5.4-4.1 15.9c-.1.3 1 1.6 1.8 1.6 0 0 6.7-1.9 16.7-1.3.4 0 .7-.6.4-.9l-12.4-15.6-1.9-.1zm15.5 71.4v-10.3h3.6v-1.2h-8.2v1.2h3.4v10.3zm15.1 0v-11.5h-2l-2.9 9.3-3-9.3h-2v11.5h1.3v-9.8l3.1 9.8h1.2l3.1-9.8v9.8zm394-160.2l3.4 12.2h10.8l-15.9-53.6h-12l-13.8 45.3v8.3h12.3v-8h-2l1.1-4.2h16.1zm-8.1-29.6l5.6 20.4h-11l5.4-20.4zm88 41.8v-11.1h-9.4v1.9h-8.9v-44.4h-12.5v9.2h2.1v44.4zm120.5-53.6l-13.8 45.3v8.3h12.3v-8h-2l1.1-4.2h15.9l3.4 12.2h10.8l-15.9-53.6h-11.8zm.1 32.2l5.4-20.4 5.6 20.4h-11zm152.6.4v21h10.3v-21l11.8-24.3v-8.3h-12.3v8h2l-6.6 14.8-9.8-22.8h-11.5zm-238.3-21.4v31.3c0 6.1 5 11.2 11.2 11.2h25.7v-31.4h-14.4v9.2h4.1v13h-11.8c-2.5 0-4.5-2-4.5-4.5v-26.3c0-2.5 2-4.5 4.5-4.5h11.8v2h10.3v-11.2h-25.7c-6.1 0-11.2 5-11.2 11.2zm-177.1 0v-11.2h-20.6c-6.1 0-11.2 5-11.2 11.2v31.3c0 6.1 5 11.2 11.2 11.2h20.6v-11.2h-7.7v2h-9.2c-2.5 0-4.5-2-4.5-4.5v-26.3c0-2.5 2-4.5 4.5-4.5h9.2v2h7.7zm337.8 42.4v-20.4h9.6c.9 0 2 .7 2.3 1.5l3.9 9.6h-2.1v9.2h12.8v-9.2l-6-14.7c3.6-1.9 6-5.6 6-9.9v-8.6c0-6.1-5-11.2-11.2-11.2h-27.8v9.2h2.1v44.4h10.4zm0-44.4h11.8c2.5 0 4.5 2 4.5 4.5v5.9c0 2.5-2 4.5-4.5 4.5h-11.8v-14.9zm243.3 119.5v-13.6c0-5.6-4.6-10.2-10.2-10.2h-10.4c-3.6 0-6.8 1.9-8.6 4.8h7.5c5.6 0 10.2 4.6 10.2 10.2v8.8h11.5zm0 48.8v-5.9l-11.6 4.7v1.2zm29.5-23.9h-60.3v4.8h48.8z"/><path class="st1" d="M-3171.5 1491.4h56.7l11.5-4.8h-56.7c-18.3 0-33.2-14.9-33.2-33.2v-56.2c0-11.6 6-21.8 15.1-27.7-15.1 3.1-26.6 16.5-26.6 32.5v56.2c0 18.3 14.9 33.2 33.2 33.2zm-202.9 0h56.7l11.5-4.8h-56.7c-18.3 0-33.2-14.9-33.2-33.2v-56.2c0-11.6 6-21.8 15.1-27.7-15.1 3.1-26.6 16.5-26.6 32.5v56.2c0 18.3 14.9 33.2 33.2 33.2z"/><path class="st1" d="M-3366.5 1442.6h48.8l11.5-4.8h-60.3zm30.8-29.7v-13.6c0-5.6-4.6-10.2-10.2-10.2h-10.4c-3.6 0-6.8 1.9-8.6 4.8h7.5c5.6 0 10.2 4.6 10.2 10.2v8.8h11.5zm0 48.8v-5.9l-11.5 4.7v1.2zm351.6-92.2c-15.1 3.1-26.6 16.5-26.6 32.5v11.7c0 8.4 6.5 17.7 14.4 20.7l42.4 15.8c2 .7 3.6 3.1 3.6 5.2v.8c0 2-.6 3.9-1.6 5.4h2.9c5.6 0 10.2-4.6 10.2-10.2v-.7c0-2.1-1.6-4.4-3.6-5.2l-42.4-15.8c-7.9-3-14.4-12.3-14.4-20.7v-11.8c0-11.5 6-21.8 15.1-27.7zm-26.6 91v30.9h56.7c6.7 0 12.9-2 18.2-5.5-2.1.4-4.4.7-6.6.7h-56.7v-30.9l-11.6 4.8zm71.9-71.5h-20.6c-3.6 0-6.8 1.9-8.6 4.8h17.7v5.9h22.2l11.5-4.8h-22.2v-5.9zm-324.7 4.8h17.7v67.9h11.5V1389h-20.6c-3.6 0-6.8 1.9-8.6 4.8zm11.8-71.2v25h5.9v16.4h11.5v-21.2h-5.9v-25z"/><path class="st1" d="M-3204.7 1486.7h-56.7c-18.3 0-33.2-14.9-33.2-33.2v-56.2c0-11.6 6-21.8 15.1-27.7-15.1 3.1-26.6 16.5-26.6 32.5v56.2c0 18.3 14.9 33.2 33.2 33.2h56.7l11.5-4.8zm-650.6-.7c-2.1.4-4.4.7-6.6.7h-75.3v-35.1l-11.5 4.8v35.1h75.3c6.6-.1 12.9-2.1 18.1-5.5zm11.9-128.3l11.5-4.8h-26.4v-10.1h-39.2c-3.6 0-6.8 1.9-8.6 4.8h36.3v10.1h26.4zm-86.1 52.2l52.6 19.3c4 1.5 7.2 6.1 7.2 10.3v16.8c0 2-.6 3.9-1.6 5.4h2.9c5.6 0 10.2-4.6 10.2-10.2v-16.8c0-4.2-3.2-8.9-7.2-10.3l-52.6-19.3c-10.6-3.9-19.2-16.2-19.2-27.5V1351c0-11.6 6-21.8 15.1-27.7-15.1 3.1-26.6 16.5-26.6 32.5v26.6c0 11.3 8.6 23.6 19.2 27.5zm889.2-10.7c0-5.6-4.6-10.2-10.2-10.2h-5.8v6.6c2.7 1.8 4.5 4.9 4.5 8.4v13.6h29.6l11.5-4.8h-29.6v-13.6zm-57.1 92.2h35.5l11.5-4.7h-35.4V1389h-6v-25l-11.5 4.8v25h5.9zm-370.6 0h15.6c6.7 0 12.9-2 18.2-5.5-2.1.4-4.4.7-6.6.7h-27.1v4.8zm-35.5-102.4v-25l-11.5 4.8v9.6c3.1 4.5 5.1 9.7 5.7 15.4h.2v143.8h29.6l11.5-4.8h-29.6V1389h-5.9zm53.2 72.7h2.9c5.6 0 10.2-4.6 10.2-10.2v-52.2c0-5.6-4.6-10.2-10.2-10.2h-20.6v4.8h9.1c5.6 0 10.2 4.6 10.2 10.2v52.2c0 2-.6 3.8-1.6 5.4zm-144.8-62.5c0-5.6-4.6-10.2-10.2-10.2h-6.5c-3.6 0-6.8 1.9-8.6 4.8h3.6c5.6 0 10.2 4.6 10.2 10.2v87.4h29.6l11.5-4.8h-29.6v-87.4zm-128.4-4.3h-22.1V1364l-11.5 4.8v30.9h22.1zm30.8 4.3c0-5.6-4.6-10.2-10.2-10.2h-20.6v4.8h9.1c5.6 0 10.2 4.6 10.2 10.2v4.8l11.5-3.6v-6zm0 62.5v-30.3l-25.9 8.1c-1.2.4-2.2 1.2-3 2.1l17.4-5.4v25.5h11.5z"/><path class="st1" d="M-3544.5 1461.7h5.9v-62.5c0-5.6-4.6-10.2-10.2-10.2h-6.5c-3.6 0-6.8 1.9-8.6 4.8h3.6c5.6 0 10.2 4.6 10.2 10.2v60l-5.9 2.5v25h35.5l11.5-4.8h-35.5v-25zm-107.1-72.7h-5.9v-25l-11.5 4.8v9.6c3.1 4.5 5.1 9.7 5.7 15.4h.2v67.8h5.9v25h-62.6c-18.3 0-33.2-14.9-33.2-33.2v-11.6c0-7.6 4.6-15.6 11.1-20.1l-5.5 1.7c-9.4 2.9-17.1 13.4-17.1 23.2v11.6c0 18.3 14.9 33.2 33.2 33.2h62.6l5.6-2.3v2.3h29.6l11.5-4.8h-29.6V1389zm-186.5 4.8h9.4v64.4c0 18.3 14.9 33.2 33.2 33.2h19.4l11.5-4.8h-19.4c-18.3 0-33.2-14.9-33.2-33.2V1389h-9.4v-25h9.4v-34l-11.5 4.8v30.1l-9.4 3.9v25zm50.5 0h11.5l11.6-4.8h-23.1zm883 92.9v-10.3h3.5v-1.2h-8.2v1.2h3.4v10.3zm10.1-2.2l-2.9-9.3h-2v11.5h1.2v-9.8l3.1 9.8h1.2l3.1-9.8v9.8h1.2v-11.5h-1.9z"/></svg>