<?xml version="1.0" encoding="utf-8"?><svg xmlns="http://www.w3.org/2000/svg" width="1722" height="328.4" viewBox="0 0 1722 328.4"><style>.st0{fill:#FFFFFF;} .st1{fill:#CAC8C8;} .st2{fill:#A4A9AD;} .st3{fill:#794210;} .st4{fill:#8B2332;} .st5{fill:#003A70;} .st6{fill:#2B5134;} .st7{fill:#FFB819;} .st8{fill:#FFFFFF;stroke:#FBB420;stroke-width:3.6;stroke-miterlimit:10;} .st9{fill:#FFFFFF;stroke:#FBB420;stroke-width:1.44;stroke-miterlimit:10;} .st10{fill:#F15623;} .st11{fill:#AC162C;} .st12{fill:#A93439;} .st13{fill:#5F8FB1;} .st14{fill:#0D2240;} .st15{fill:#BE955B;} .st16{fill:#B2B3B2;} .st17{fill:#006241;} .st18{fill:#CF0A2C;} .st19{fill:#E63630;} .st20{fill-rule:evenodd;clip-rule:evenodd;fill:#E63630;}</style><g id="Layer_1"><path class="st0" d="M407.3 72.9v12.5h-3l-5.7 44.7h-23.2l-6.1-43.5-5.9 43.5h-23.2l-5.7-44.7h-3.2V72.9h18.3l4.4 43.5 5.5-43.5h19.8l5.5 43.5 4.2-43.5h18.3zm25.7 0v12.5h-2.8v32.2h2.8v12.5h-22.7v-12.5h2.8V85.4h-2.8V72.9H433zm63.1 0v12.5h-2.8v44.7h-24.6l-13.6-45 1 45h-17.2v-12.5h2.8V85.4h-2.8V72.9H468l11.9 40.7-.5-40.7h16.7zm62.4 0v12.5h-2.8v44.7h-24.6l-13.6-45 1 45h-17.2v-12.5h2.8V85.4h-2.8V72.9h29.1l11.9 40.7-.5-40.7h16.7zm28.1 0v12.5h-2.8v32.2h2.8v12.5h-22.7v-12.5h2.8V85.4h-2.8V72.9h22.7zm5.9 57.2v-12.5h2.8V85.4h-2.8V72.9h30.6c1.6 0 2.9 0 3.8.1.9.1 1.7.3 2.5.6s1.6.8 2.4 1.4c.8.6 1.9 1.5 3.3 2.7 1.1 1 2 1.9 2.6 2.6.6.7 1 1.4 1.3 2.1.3.6.4 1.3.5 2 .1.7.1 1.6.1 2.8v7.1c-.1 1.1-.1 1.9-.1 2.4s-.1.8-.3 1.2c-.2.6-.6 1.4-1.3 2.2-.6.8-1.4 1.6-2.2 2.4s-1.6 1.5-2.5 2.3c-.9.7-1.6 1.3-2.2 1.7-1 .7-2.1 1.2-3.1 1.4-1.1.2-2.6.3-4.7.3h-10.5v9.4h3.2v12.5h-23.4zm20.1-34h4.5c1.2 0 2.2-.1 2.9-.3.7-.2 1.3-.7 1.8-1.4.4-.5.6-1 .8-1.7.1-.6.2-1.7.2-3.2-.1-2-.6-3.3-1.6-3.8s-2.5-.8-4.5-.9h-4.2v11.3zm71.6-23.2l1.4 18.7H672l-.7-4c-.2-1.1-.5-1.8-.8-2.1-.3-.3-1-.5-2.1-.5H663v10.5h13.5v10.7H663V118h6c1.1 0 1.8-.1 2.1-.4.3-.3.6-1 .9-2.1l1-5h14l-1.3 19.5h-42.4v-12.5h2.8V85.4h-2.8V72.9h40.9zm50.4 0l1.1 18.6h-13.9l-.6-4.2c-.2-1-.5-1.6-1-1.8-.5-.2-1.5-.4-3-.4-1.7 0-3 .1-3.8.2s-1.4.4-1.9.8-.8 1-.9 1.8c-.2.8-.2 2-.2 3.6V112c0 2.5.4 4.1 1.1 4.9.7.8 2.4 1.2 5.1 1.2h4.4v-11.5h-5.3V96h21.6v34.1h-30.7c-.6 0-1.2-.1-1.7-.3-.8-.2-1.7-.6-2.7-1.2-1-.6-1.9-1.3-2.9-2.1s-1.9-1.7-2.7-2.6-1.5-1.7-1.9-2.5c-.6-1-1.1-2-1.3-3-.2-.9-.3-2.5-.3-4.7V88.4c0-1.2 0-2.2.1-3 .1-.7.2-1.5.5-2.2.3-.8.7-1.6 1.3-2.4.6-.9 1.5-1.9 2.6-3 1.2-1.2 2.3-2.2 3.2-2.8.9-.6 1.8-1.1 2.6-1.4s1.6-.5 2.3-.5c.7-.1 1.7-.1 3-.1h25.9zm-566 6.5v41h9.1L165.9 182 141.8 79.4H99.2L75.1 182l-11.7-61.6h9v-41H9.7v41h11.4l28.4 127.4h44l27-102.3 27 102.3h44l28.4-127.4h11.5v-41z"/><path class="st15" d="M161 71.7v55.8l-13.1-55.8H93.2L80 127.6V71.7H2V128h13l28.4 127.4h56l21.1-80 21.1 80h56L226 128.1h13V71.7h-78zm7.4 56.4l-3.3 17.2-4-17.2h7.3zm-88.5 0l-4 17.2-3.3-17.2h7.3zm151.5-7.7h-11.5l-28.4 127.4h-44l-27-102.3-27 102.3h-44L21.1 120.4H9.7v-41h62.7v41.1h-9L75.1 182 99.2 79.4h42.6L165.9 182l11.7-61.6h-9v-41h62.7v41zm-29.5 127.9h2.4v7.1h.8v-7.1h2.5v-.9h-5.7zm10.3 5.6l-2-6.5h-1.4v8h.8v-6.8l2.2 6.8h.9l2.1-6.8v6.8h.9v-8h-1.4z"/><path class="st0" d="M334.4 256.6v-23.2h5.1v-60h-5.1V150h56.5c2.9.1 5 .2 6.3.3 1.3.1 2.6.4 4.1.8 1.5.5 3 1.2 4.5 2.3 1.6 1.1 3.5 2.5 5.8 4.5 4 3.3 6.6 5.9 7.6 7.8 1.1 1.9 1.7 4.2 1.9 6.8v11.6c-.1 1.9-.3 3.4-.5 4.6-.2 1.2-.8 2.3-1.7 3.5-.9 1.2-2.4 2.6-4.4 4.1-2.1 1.5-4.9 3.3-8.5 5.3 4 1.8 7.2 3.4 9.5 4.8s4 2.7 5.1 3.9c1.1 1.3 1.7 2.5 2 3.8.2 1.3.4 3.1.4 5.4v10.3c0 2.4-.1 4.2-.2 5.4-.1 1.2-.4 2.4-1 3.5-.6 1.2-1.4 2.4-2.6 3.8-1.2 1.4-2.8 3-4.9 4.9-2.7 2.5-4.9 4.4-6.6 5.5-1.7 1.2-3.2 2-4.6 2.6-1.4.6-2.9.9-4.6 1.1-1.7.2-4.2.2-7.6.2h-56.5zm37.3-64.7h8c4.1-.1 6.6-.9 7.5-2.5.9-1.6 1.4-4.6 1.4-9.1-.1-3-.8-5.1-2.2-6.2-1.4-1.1-3.9-1.7-7.6-1.8h-7.1v19.6zm0 42.1h8.4c4.3 0 7.2-.8 8.5-2.3 1.4-1.6 2-4.2 2-7.9 0-4.8-.6-8.1-1.8-9.7-1.2-1.7-4.3-2.5-9.2-2.5h-8V234zm141.9-17.5l-2.3 40.1H435v-23.2h5.1v-60H435v-23.2h42.2v23.2h-5.1v60h10.1c1.9 0 3.2-.4 3.8-1.1.6-.8 1.1-2.3 1.4-4.6l1.8-11.2h24.4zm94.3-66.3v23.2h-5.1v51.4c0 3.2-.1 5.6-.2 7.2-.2 1.6-.5 3.2-1 4.7s-1.3 3-2.5 4.6c-1.2 1.6-2.8 3.4-5.1 5.5-2.5 2.4-4.7 4.3-6.4 5.7-1.8 1.4-3.3 2.3-4.8 2.9-1.4.6-2.8.9-4.3 1.1-1.5.2-3.6.2-6.4.2h-21.3c-2.5 0-4.4 0-5.7-.2-1.3-.1-2.5-.2-3.5-.5-1.4-.4-3-1.2-4.8-2.5-1.8-1.3-3.6-2.7-5.4-4.4s-3.4-3.2-4.9-4.8c-1.5-1.5-2.5-2.8-3.2-3.8-1.3-2-2.1-3.8-2.4-5.3s-.5-4.6-.5-9.2v-52.8h-5.1V150h37.6v75.1c.1 1.1.2 2.1.4 2.9.2.8.5 1.6 1.1 2.5.6.9 1.4 1.6 2.6 2.1 1.2.6 2.8.8 4.7.8 3.9 0 6.4-1 7.4-2.9s1.5-5 1.5-9.2V150h37.3zm86 0l2.6 34.8h-25.3l-1.4-7.4c-.4-2-.9-3.3-1.4-3.8-.6-.6-1.9-.9-4-1h-10.1v19.6h25.2v19.9h-25.2v22h11.2c2 0 3.3-.3 3.9-.8.6-.6 1.2-1.8 1.7-3.8l1.8-9.4H699l-2.4 36.4h-79v-23.2h5.1v-60h-5.1v-23.2h76.3zm52.3 106.4v-23.2h5.1v-60h-5.1V150h56.5c2.9.1 5 .2 6.3.3 1.3.1 2.6.4 4.1.8 1.5.5 3 1.2 4.5 2.3 1.6 1.1 3.5 2.5 5.8 4.5 4 3.3 6.6 5.9 7.6 7.8 1.1 1.9 1.7 4.2 1.9 6.8v11.6c-.1 1.9-.3 3.4-.5 4.6-.2 1.2-.8 2.3-1.7 3.5-.9 1.2-2.4 2.6-4.4 4.1-2.1 1.5-4.9 3.3-8.5 5.3 4 1.8 7.2 3.4 9.5 4.8s4 2.7 5.1 3.9c1.1 1.3 1.7 2.5 2 3.8.2 1.3.4 3.1.4 5.4v10.3c0 2.4-.1 4.2-.2 5.4-.1 1.2-.4 2.4-1 3.5-.6 1.2-1.4 2.4-2.6 3.8-1.2 1.4-2.8 3-4.9 4.9-2.7 2.5-4.9 4.4-6.6 5.5-1.7 1.2-3.2 2-4.6 2.6-1.4.6-2.9.9-4.6 1.1-1.7.2-4.2.2-7.6.2h-56.5zm37.2-64.7h8c4.1-.1 6.6-.9 7.5-2.5.9-1.6 1.4-4.6 1.4-9.1-.1-3-.8-5.1-2.2-6.2-1.4-1.1-3.9-1.7-7.6-1.8h-7.1v19.6zm0 42.1h8.4c4.3 0 7.2-.8 8.5-2.3 1.4-1.6 2-4.2 2-7.9 0-4.8-.6-8.1-1.8-9.7-1.2-1.7-4.3-2.5-9.2-2.5h-8V234zm117.8-83.8h.2c3.1.1 5.4.2 6.7.3 1.4.1 2.7.4 4.1 1 1.4.6 2.8 1.4 4.2 2.5 1.5 1.1 3.4 2.9 5.8 5.3 2.3 2.2 4 4.1 5.2 5.6 1.2 1.5 2 3 2.6 4.4.6 1.4.9 2.9 1 4.4.1 1.6.2 3.9.2 7.2v46c0 3-.1 5.3-.2 6.8s-.4 2.9-.9 4.3-1.3 2.7-2.5 4.1c-1.2 1.4-2.9 3.3-5.2 5.6-2.4 2.4-4.4 4.2-5.9 5.4-1.5 1.2-3 2-4.4 2.6-1.4.6-2.8.9-4.3 1-1.5.1-3.6.2-6.6.2h-24.4c-2.5-.1-4.4-.2-5.7-.4-1.3-.2-2.5-.5-3.8-1.1-1.3-.6-2.7-1.6-4.3-2.9-1.6-1.3-3.5-3.2-6-5.6-2-2-3.5-3.8-4.6-5.3-1.1-1.5-1.8-3-2.3-4.4-.5-1.4-.8-2.9-1-4.6s-.2-3.8-.2-6.4v-46.5c0-3 .1-5.2.2-6.6.2-1.4.5-2.7 1.1-4 .6-1.3 1.4-2.6 2.6-4.1 1.2-1.5 3.1-3.4 5.7-6 2.3-2.2 4.2-3.9 5.8-5.1 1.6-1.2 3.1-2 4.5-2.5 1.5-.5 3-.8 4.7-1 1.7-.2 4.1-.2 7.5-.2h20.2zm-2.2 36c0-4.7-.5-8-1.5-9.9-1-1.9-3.6-2.8-7.8-2.8-1.5 0-3 .2-4.4.7-1.5.5-2.6 1.5-3.4 3.2-.4.7-.6 1.6-.7 2.6-.1 1-.1 3.1-.1 6.2v34.2c.1 5 .7 8.4 1.7 10.2 1 1.8 3.6 2.6 7.8 2.6 1.5 0 2.9-.2 4.3-.7 1.4-.5 2.4-1.5 3.2-3.1.4-.8.7-1.7.8-2.8.1-1.1.2-3.1.2-6.3v-34.1zm178.7-36v23.2h-5.1v60h5.1v23.2h-35.6l1.2-83.3-20.7 83.3h-23.5l-20.8-84.2 1.5 84.2h-35.4v-23.2h5.1v-60h-5.1v-23.2h55.2l11.5 66.7 11.6-66.7h55zm11.2 106.4v-23.2h5.1v-60h-5.1V150h56.5c2.9.1 5 .2 6.3.3 1.3.1 2.6.4 4.1.8 1.5.5 3 1.2 4.5 2.3 1.6 1.1 3.5 2.5 5.8 4.5 4 3.3 6.6 5.9 7.6 7.8 1.1 1.9 1.7 4.2 1.9 6.8v11.6c-.1 1.9-.3 3.4-.5 4.6-.2 1.2-.8 2.3-1.7 3.5-.9 1.2-2.4 2.6-4.4 4.1-2.1 1.5-4.9 3.3-8.5 5.3 4 1.8 7.2 3.4 9.5 4.8s4 2.7 5.1 3.9c1.1 1.3 1.7 2.5 2 3.8.2 1.3.4 3.1.4 5.4v10.3c0 2.4-.1 4.2-.2 5.4-.1 1.2-.4 2.4-1 3.5-.6 1.2-1.4 2.4-2.6 3.8-1.2 1.4-2.8 3-4.9 4.9-2.7 2.5-4.9 4.4-6.6 5.5-1.7 1.2-3.2 2-4.6 2.6-1.4.6-2.9.9-4.6 1.1-1.7.2-4.2.2-7.6.2h-56.5zm37.2-64.7h8c4.1-.1 6.6-.9 7.5-2.5.9-1.6 1.4-4.6 1.4-9.1-.1-3-.8-5.1-2.2-6.2-1.4-1.1-3.9-1.7-7.6-1.8h-7.1v19.6zm0 42.1h8.4c4.3 0 7.2-.8 8.5-2.3 1.4-1.6 2-4.2 2-7.9 0-4.8-.6-8.1-1.8-9.7-1.2-1.7-4.3-2.5-9.2-2.5h-8V234zm139.9-83.8l2.6 34.8h-25.3l-1.4-7.4c-.4-2-.9-3.3-1.4-3.8-.6-.6-1.9-.9-4-1h-10.1v19.6h25.2v19.9h-25.2v22h11.2c2 0 3.3-.3 3.9-.8.6-.6 1.2-1.8 1.7-3.8l1.8-9.4h26.1l-2.4 36.4h-79v-23.2h5.1v-60h-5.1v-23.2h76.3zm14.6 106.4v-23.2h5.1v-60h-5.1v-23.2h56.7c3 0 5.3.1 6.8.2s2.8.4 3.9.8c1.2.4 2.6 1.1 4.1 2 1.5 1 3.1 2.1 4.8 3.4 1.7 1.3 3.2 2.6 4.5 3.9 1.4 1.3 2.5 2.5 3.4 3.5 1.7 2 2.7 3.7 3 5.1.3 1.4.5 4 .6 8.1v7.9c0 3.4-.2 5.8-.6 7.1-.4 1.3-1.5 2.8-3.3 4.4-1.9 1.7-3.8 3.1-5.8 4.2s-4.1 2.2-6.6 3.3l-.2.2c3.1 1.4 5.9 2.8 8.4 4.1 2.5 1.4 4.3 2.6 5.7 3.8 1.5 1.4 2.4 2.7 2.8 4 .4 1.3.5 3.6.5 7v10.4h5.1v23.2h-37.9v-29.3c0-4.7-.6-7.9-1.8-9.6-1.2-1.7-4.3-2.5-9.2-2.5h-7.7v41.3h-37.2zm37.2-61.9h6.9c3.9 0 6.7-.7 8.4-2.2 1.7-1.5 2.6-4.5 2.6-9 0-1.2-.1-2.3-.2-3.2-.1-1-.4-1.9-.9-2.9s-1.3-1.9-2.3-2.6c-1.1-.7-2.5-1.1-4.3-1.2-.5-.1-3.9-.2-10.3-.2v21.3zm140.6-44.7l2.9 33.6h-25l-.8-4.5c-.2-1-.4-1.9-.5-2.6-.1-.8-.2-1.2-.3-1.3-.4-1.4-1.1-2.3-2.2-2.6-1.1-.4-2.3-.5-3.7-.5-3.9 0-6.6.1-8 .4-1.4.3-2.6 1-3.6 2.2-.6.9-1 1.8-1.1 2.6-.2.8-.2 2.5-.2 5.1 0 2.1.3 3.5.9 4.2.6.7 2.1 1.4 4.5 2l29.7 7.8c2.9.8 5.2 1.6 6.7 2.3 1.6.7 2.8 1.6 3.7 2.7.9 1.1 1.5 2.5 1.8 4.2.3 1.7.5 4 .5 6.8v17.3c0 2.6-.1 4.6-.2 5.8-.1 1.3-.4 2.5-.8 3.6-.5 1.2-1.2 2.4-2.2 3.6-1 1.3-2.6 2.9-4.7 5.1-2.1 2.1-4 3.7-5.7 4.9-1.7 1.2-3.2 2-4.7 2.6-1.5.6-3 .9-4.5 1.1-1.6.2-3.5.3-6 .3h-47.4l-2.6-35.1h25.3l2 8.9c.3 1.3.6 2.2.8 2.7.2.5.7.9 1.4 1.2.7.3 1.6.5 2.8.5 1.2.1 3.3.1 6.2.1 3.5-.1 5.9-.7 7.1-1.9 1.2-1.2 1.9-3.3 2-6.6 0-2-.1-3.5-.2-4.4-.1-.9-.4-1.7-.9-2.3-.5-.7-1.3-1.2-2.3-1.6-1.1-.4-2.6-.9-4.8-1.4l-24.7-6.9c-3.8-1.1-6.7-2.1-8.6-2.9-1.9-.9-3.3-1.8-4.1-2.9-.9-1.1-1.4-2.5-1.6-4.1-.2-1.6-.3-4.2-.3-7.8v-16.3c0-2.3 0-4.1.2-5.4.1-1.3.4-2.3.9-3.2.7-1.5 2.4-3.6 5.1-6.2 2.7-2.6 5.7-5 9-7.2 1.4-.9 2.6-1.6 3.6-2.1s2.1-.9 3.3-1.1c1.2-.2 2.6-.4 4.3-.5 1.7-.1 3.8-.2 6.6-.2h40.4z"/></g></svg>