<svg id="Layer_1" data-name="Layer 1" xmlns="http://www.w3.org/2000/svg" viewBox="0 0 358.65 73.14"><defs><style>.cls-1{fill:#fff;}.cls-2{fill:#ffb71b;}.cls-3{fill:#a73439;}.cls-4{fill:#231f20;}</style></defs><title>Hamilton SVG</title><path class="cls-1" d="M86.45,46.06a18.19,18.19,0,0,1-3.66-2.51A34.66,34.66,0,1,0,14.72,32.26c-5.32.85-12.14,4-12.14,10.46a6.75,6.75,0,0,0,6.88,7.15l0,.27-1.24.23c-3.27,3.7-1.1,9.51-5.82,13.09a6.19,6.19,0,0,0-.2,2A7.67,7.67,0,0,1,0,66.66c.36,1.09,2.6,1.77,2.92,1.82l.13.32a3.73,3.73,0,0,1-.93,1.69c.48.69,2.67.82,3.22.68a2.89,2.89,0,0,1-.43,1.09,5.11,5.11,0,0,0,3.22-.42,2.34,2.34,0,0,1-.08.89,6.59,6.59,0,0,0,3.68-1.85s2.5-.62,2.67-2.08c.27-2.51.42-4.44.77-6.22A6.84,6.84,0,0,0,19,61.84a39.92,39.92,0,0,1,4.2-4.45c.38.43.76.85,1.15,1.26-1.09,3.51.43,5.94-2.55,8.12a4.94,4.94,0,0,0,.29,1.67,4.45,4.45,0,0,1-.79,1.67,2.94,2.94,0,0,0,2.33.63,4.85,4.85,0,0,1-.31,1.57,4.62,4.62,0,0,0,2.77-.16,3.84,3.84,0,0,1-.26,1,8,8,0,0,0,3.15-1.4,3.05,3.05,0,0,1,0,.9c1.39-.92,2.68-2.18,2.94-3.36l.6-.45a22.61,22.61,0,0,0,.49-3.64,34.61,34.61,0,0,0,43.36-8.85,5.43,5.43,0,0,0,2.94-.23s-.68.5-.82.57,2.64,1.07,4.15,0a1.62,1.62,0,0,1-.26.54s2.47.6,3.76-.75a3.19,3.19,0,0,1-.18.5,3.59,3.59,0,0,0,3.25-2.12,4.35,4.35,0,0,0,1.67-3.54C90.8,47.19,86.45,46.06,86.45,46.06Zm1.6,7.84c-.29.56-.84,1.38-1.53,1.27a4.62,4.62,0,0,0,.22-.48.89.89,0,0,1-.24.12,2.06,2.06,0,0,1-.76.3,1.9,1.9,0,0,1-1.93.58,1.58,1.58,0,0,0,.55-.72,3,3,0,0,1-.53-.27,1.81,1.81,0,0,1-.69.24,1.91,1.91,0,0,1-2.15.7,2.25,2.25,0,0,0,.56-1.16,3,3,0,0,1-.44-.39,6.85,6.85,0,0,1-1.22.12,2.76,2.76,0,0,1-2.36.91A2.36,2.36,0,0,0,78.2,54a3.17,3.17,0,0,1-1.32-.77A33.25,33.25,0,0,1,31.6,62.8a28.06,28.06,0,0,1-.44,5.25,4.85,4.85,0,0,1-.46.3,3.53,3.53,0,0,1-.91,1.46,2.92,2.92,0,0,0,0-.78l-.43.7-.5.13A3,3,0,0,1,27.48,71,2.66,2.66,0,0,0,27.64,70l-.67.49-.64,0a2.26,2.26,0,0,1-1.34.75,2.51,2.51,0,0,0,.25-1,1.59,1.59,0,0,1-.66-.46l0-.85-.06,0a2.39,2.39,0,0,1-1.4.55,2.29,2.29,0,0,0,.53-1.19,1.31,1.31,0,0,1-.41-.82,5.6,5.6,0,0,0,2-4.29A13.37,13.37,0,0,1,26,58.33a33.72,33.72,0,0,1-2.66-2.95,41.88,41.88,0,0,0-5.24,5.32,4.85,4.85,0,0,1-3.92.19A43.93,43.93,0,0,0,13,68.68a4,4,0,0,1-2.13,1,2.63,2.63,0,0,1-1.5,1.27,1.8,1.8,0,0,0,.28-.8,2.24,2.24,0,0,1-1.22.2A2.19,2.19,0,0,1,6.87,71a2.25,2.25,0,0,0,.53-1l-.5-.3-.15.17a2.74,2.74,0,0,1-1.18-.28,2.7,2.7,0,0,1-1.63.35,3.55,3.55,0,0,0,.73-1.12,3,3,0,0,1-.49-1l.25-.26L4.05,67a2.22,2.22,0,0,1-1.66-.1A2.52,2.52,0,0,0,3.66,66a4,4,0,0,1,0-1.73c4.81-4.13,2.82-9.33,5.24-12.55,1.57-.22,2-.68,2-.68a4.44,4.44,0,0,1,.68-2.79,8.86,8.86,0,0,1-1.84.24A5.41,5.41,0,0,1,4,42.81c0-7.27,9.52-9,12.09-9.34A33.25,33.25,0,1,1,81.21,44a18.39,18.39,0,0,0,4.7,3.39s3.48.82,3.48,3.89A3,3,0,0,1,88.05,53.9Z"/><path class="cls-1" d="M15.7,38.19c-3.09,0-6.84,2.11-6.84,4.5,0,.77.52,1.09,1.4,1.09,1.74,0,4.09-1.19,6.41-2.69-.19-1-.34-1.92-.44-2.9Zm-5.37,4.2C10.24,42,11.89,40,15,39.64c0,.25.07.49.12.74C12.88,41.72,10.73,42.63,10.33,42.39Z"/><path class="cls-1" d="M51.05,60.25c-.32,0-.42.2-.39.55l.17,2.4c0,.36.14.52.46.5s.42-.2.4-.56l-.17-2.4C51.5,60.39,51.38,60.23,51.05,60.25Z"/><path class="cls-1" d="M46.3,60.13c-.33,0-.45.12-.49.48L45.52,63c0,.36,0,.54.37.58s.45-.12.49-.47l.29-2.39C46.71,60.36,46.62,60.17,46.3,60.13Z"/><path class="cls-1" d="M74.91,51a1.85,1.85,0,0,1-.7-2.13s-4.6-1.44-7.13-4.28c0,0-5,.21-7.34-1.4a19.22,19.22,0,0,1-5.54,4,6.14,6.14,0,0,0-4.35-1.59c-2.73,0-3.34,1.16-6.38,1.46l.64,1.14a9.5,9.5,0,0,0,4.32-1.29s4.44-.2,5.14,3a3.25,3.25,0,0,1-.21,1,3.06,3.06,0,0,1-.12,2.53,1.83,1.83,0,0,0-.6-1.26,3.65,3.65,0,0,1-.27.3,2,2,0,0,1,0,.43,4.14,4.14,0,0,1-.22.47,2.25,2.25,0,0,1,0,2.29,2.55,2.55,0,0,0-.74-1.25,2.73,2.73,0,0,1-.25.23l0,.09a2.89,2.89,0,0,1-.37.68,2.25,2.25,0,0,1,0,2,2.71,2.71,0,0,0-.83-1.2,3.13,3.13,0,0,1-.36.22,1.77,1.77,0,0,1-.59.73,1.82,1.82,0,0,1-.41,1.76,1.91,1.91,0,0,0-.56-1.25,8.13,8.13,0,0,1-1.52.36L45,57.29s-3.79,1.05-5.55-.57a19.08,19.08,0,0,1-4.88,5.2,13.71,13.71,0,0,1-1.48,0,31.72,31.72,0,0,0,42.18-9A2.9,2.9,0,0,1,74.91,51Zm-31.74,8.7-1.4-.41-.35,1.17,1,.31-.2.68-1.05-.31-.6,2-.78-.23,1.35-4.55,2.18.65Zm4.31,1.12-.29,2.43a1.25,1.25,0,0,1-2.48-.29L45,60.49a1.25,1.25,0,0,1,2.48.29Zm3.86,3.63A1.15,1.15,0,0,1,50,63.28l-.17-2.44a1.25,1.25,0,0,1,2.5-.17l.16,2.44A1.13,1.13,0,0,1,51.34,64.41Zm4.4-.71-.93-3.92L54,60l-.16-.69,2.32-.55.17.69-.77.18.93,3.93Zm5-1.61-1.19.5-1.82-4.38,1.11-.47a1.12,1.12,0,0,1,1.65.67,1,1,0,0,1-.14,1.14,1.09,1.09,0,0,1,1,.78A1.19,1.19,0,0,1,60.79,62.09Zm4.94-2.64-.68-.81-.75.48.44,1-.67.42L62.27,56l.85-.54L66.4,59Zm2.64-2L65.22,54l.61-.54,2.68,3,1-.85.47.53Zm3-2.88-3.62-3.08.53-.62,3.08,2.61.82-1,.55.46Z"/><polygon class="cls-1" points="65.45 12.6 63.74 13.68 64.93 14.55 65.45 12.6"/><path class="cls-1" d="M59.82,58.81q-.26-.62-.75-.42l-.29.12.5,1.18.27-.11A.54.54,0,0,0,59.82,58.81Z"/><path class="cls-1" d="M59.78,60.21l-.24.1.56,1.34.31-.13c.4-.16.45-.46.27-.9S60.23,60,59.78,60.21Z"/><path class="cls-1" d="M27.18,57.36a3.23,3.23,0,0,0,1-.64,11,11,0,0,1,.75-5.28,33.67,33.67,0,0,0-4.42,3A32.79,32.79,0,0,0,27.18,57.36Z"/><path class="cls-1" d="M38.52,18.72a18.05,18.05,0,0,1,11.26-2.39,4.55,4.55,0,0,0-.41-.89,9.66,9.66,0,0,1,6.16,3,9.53,9.53,0,0,1,3.93,1.09s4.28-1.41,4.93-.51.27,4.34-1.11,5.87l.3.19a10.41,10.41,0,0,1,1.74.25l-1.3.05a20.22,20.22,0,0,1,7.07,9.27c5,1.54,6.19,4.74,8.9,8A31.71,31.71,0,1,0,17.6,34.16c.92.19,1.92.65,1.92,1.76A2,2,0,0,1,17.77,38c.07.71.18,1.41.3,2.11C20,38.83,21.73,37.42,23,36.43c3.33-4.53,6.09-11.62,14.1-16.84C37.2,19.22,37.2,18.63,38.52,18.72Zm37.81,2.91a3.45,3.45,0,0,1,.29,2.51l-1.78-.52a1.47,1.47,0,0,0,0-1.28c-.17-.35-.59-.8-1-.59s-.35.68-.22,1.45c.17,1,.38,2.2-1,2.89s-2.74.08-3.52-1.5a3.54,3.54,0,0,1-.24-2.77l1.84.53a1.73,1.73,0,0,0-.05,1.58c.18.36.6.82,1,.61s.37-.71.25-1.52c-.15-1-.34-2.23,1-2.88A2.59,2.59,0,0,1,76.33,21.63ZM70.4,13.36,74.19,18l-1.25,1-1.32-1.6L67.1,21.11,66,19.72,70.47,16l-1.32-1.6Zm-2.85-2.31L65.74,19l-1.64-1.2.41-1.61-2.16-1.59-1.4.88-1.61-1.18,7-4.11Zm-13-2.12a3.79,3.79,0,0,1,5.12-2.45,3.18,3.18,0,0,1,2,1.94L60,9.05a1.58,1.58,0,0,0-1.09-1,2.06,2.06,0,0,0-2.62,1.5,2.07,2.07,0,0,0,1.17,2.73,1.76,1.76,0,0,0,1.63-.31l1.07,1.54a3.28,3.28,0,0,1-3.18.39A3.81,3.81,0,0,1,54.55,8.93Zm-3.94-.84,2.72.28L53.18,9.8l-2.72-.28ZM46.34,5c1.85-.2,2.91.49,3.07,2a2,2,0,0,1-1.29,2.19l2.2,2.9-2.15.23L46.35,9.56l-.63.06L46,12.51l-1.8.2-.8-7.44ZM40.27,6.1l.65,1.55L37.84,8.93,38.28,10l2.91-1.2.65,1.55-2.91,1.21.48,1.18,3.26-1.35.64,1.55-4.92,2-2.86-6.9Zm-11.67,20-5.32-2.43-.87,1.88-1.47-.67,2.48-5.42,1.47.68L24,22.07l5.32,2.44Zm2-3.78L24.51,18l1-1.47,6.07,4.35Zm4.62-4.84a3.81,3.81,0,0,1-5.59-.21,3.8,3.8,0,0,1,.51-5.77A4,4,0,0,1,33,10.44L33,12.32a2.23,2.23,0,0,0-1.84.6A2.1,2.1,0,0,0,31,16a2.09,2.09,0,0,0,3.07.28,3.1,3.1,0,0,0,.86-1.16l-.66-.77-1,.85L32.16,14l2.32-2,2.57,3A6.52,6.52,0,0,1,35.2,17.53Z"/><path class="cls-1" d="M46.4,8c.74-.08,1.22-.23,1.16-.84s-.77-.66-1.22-.61l-.94.1.16,1.44Z"/><polygon class="cls-1" points="64.57 58.11 63.21 56.56 63.2 56.57 64.02 58.46 64.57 58.11"/><path class="cls-1" d="M58.13,22.75l-1.24-.05-.86.39a.46.46,0,0,0-.48-.43c-.41,0-.32.47.07.62a6.25,6.25,0,0,1,.9.51A2.82,2.82,0,0,0,58.13,22.75Z"/><path class="cls-1" d="M62.91,20.1a8.37,8.37,0,0,0-3.17,2.82c1.59-1.21,2.14-1.16,2.14-1.16a10.26,10.26,0,0,1,0,2.15A5,5,0,0,0,62.91,20.1Z"/><path class="cls-1" d="M43.58,22.75a2.83,2.83,0,0,0,1.58,1c.32-.2.64-.36.92-.5s.55-.63.1-.63a.44.44,0,0,0-.48.46l-.87-.4Z"/><path class="cls-1" d="M45.37,20.58c-.49.2-2.19,1.13-2.55,2.21l2.36-1.5,3,1.27,2.06-.41C50.19,21.16,46.55,20.12,45.37,20.58Zm2.73,1.5-1.64-1.19,2.67.67Z"/><path class="cls-1" d="M56.36,20.58c-1.19-.46-4.82.58-4.82,1.57l2.05.41,3-1.27,2.35,1.5C58.54,21.71,56.85,20.78,56.36,20.58Zm-2.73,1.5-1-.52,2.67-.67Z"/><path class="cls-1" d="M60.5,26.51a11.45,11.45,0,0,1,1.6-.16c-.13-.22-.31-.5-.5-.8a23.84,23.84,0,0,0-3.55.56,3.81,3.81,0,0,1-.65,2.33,2.6,2.6,0,0,1,.65,1.28,3.54,3.54,0,0,0-1.6,4.54s-1.13-.21-1.46-.21a19,19,0,0,0,.09,2.27c.12.57.87,4.09-1.76,4.78a1.25,1.25,0,0,1-.84-.14,6.49,6.49,0,0,0-1.63-.29,6.49,6.49,0,0,0-1.62.29,1.27,1.27,0,0,1-.84.14c-2.63-.69-1.87-4.66-1.76-5.23-.77-.41-2.78.13-2.78.13a21.23,21.23,0,0,1,.48-2.87c-1.53.3-2.51.58-2.51.58.37-1.51.54-2.18.54-2.18a5.9,5.9,0,0,0-2.44,1,10.07,10.07,0,0,1,2.54-4.4,2.59,2.59,0,0,1,.29-2.25c-.82-.16-1.75-.27-2.65-.36-.19.3-.37.58-.5.8a4.93,4.93,0,0,1,1.94.16s-2.71,2.28-3,7.81a6.49,6.49,0,0,1,2.4-1,5.52,5.52,0,0,0-.4,2,17.55,17.55,0,0,1,2.78-.81,5.18,5.18,0,0,0-.26,2.8,7.12,7.12,0,0,1,2.67-.38s-.67,4.08,1.09,4.74a9.88,9.88,0,0,0,4,.84,9.72,9.72,0,0,0,4-.84c1.87-.85,1.09-4.74,1.09-4.74a6.14,6.14,0,0,1,3,.38,5.18,5.18,0,0,0-.26-2.8,14.49,14.49,0,0,1,2.24.4,6.26,6.26,0,0,0-.34-1.12,6.35,6.35,0,0,1,2.81.68C63.57,31.12,60.5,26.51,60.5,26.51ZM59.69,32A8.53,8.53,0,0,1,60,33.4,10.2,10.2,0,0,0,58,33.2a16.53,16.53,0,0,1,0,2.68A9.92,9.92,0,0,0,57,32.31a5,5,0,0,1,1.56-.05,5.85,5.85,0,0,0-.32-1.58,6.71,6.71,0,0,1,1.4-.07,9.64,9.64,0,0,0-.79-3.5c1.92,1.54,2.92,5,2.92,5A11.08,11.08,0,0,0,59.69,32Z"/><path class="cls-1" d="M56.55,25.1l-.13,0-2.89.27a17,17,0,0,1,2.33-.83,10.76,10.76,0,0,0-1.16-.53S52,25.15,51.41,26L52,27.27l3.94.73a4.64,4.64,0,0,0,.88-1.18L53,26.72s1.69-.54,4-1A1.54,1.54,0,0,0,56.55,25.1Z"/><path class="cls-1" d="M45.88,28l3.94-.73L50.38,26c-.63-.86-3.29-2-3.29-2a9.66,9.66,0,0,0-1.19.55,16.62,16.62,0,0,1,2.28.81l-2.89-.27-.07,0a1.52,1.52,0,0,0-.36.61c2.24.46,3.89,1,3.89,1l-3.75.1A4.64,4.64,0,0,0,45.88,28Z"/><path class="cls-1" d="M55.55,28.82a2.4,2.4,0,0,0-1.71-.49s1.18,2.29.08,4.14C53.92,32.47,55.67,31.74,55.55,28.82Z"/><path class="cls-1" d="M47.78,32.47c-1.1-1.85.09-4.14.09-4.14a2.4,2.4,0,0,0-1.71.49C46,31.74,47.78,32.47,47.78,32.47Z"/><path class="cls-1" d="M49.5,39.58a3.21,3.21,0,0,0,1.35.26,3.29,3.29,0,0,0,1.36-.26l.92.26a2.88,2.88,0,0,0,.9-3,4.64,4.64,0,0,1-1.8,2.21l-.51-.33-.49.33-.38-.33-.38.33L50,38.74l-.5.33a4.7,4.7,0,0,1-1.81-2.21,2.87,2.87,0,0,0,.91,3Z"/><polygon class="cls-1" points="50.85 24.33 53.13 23.68 48.58 23.68 50.85 24.33"/><path class="cls-1" d="M48.78,28.16s-.62.54.14,1.28l.67-.29.42.26.43-.26.41.26.42-.26.43.26.41-.26.67.29c.77-.74.15-1.28.15-1.28l-.87.47H49.64Z"/><path class="cls-1" d="M52,50a3.69,3.69,0,0,0-3.38-1.9c-.23,4.13-5.95,6.11-5.95,6.11s-2.68.26-3.34-1.68c.12,1.62,1.1,3.64,5.45,3.05a7.16,7.16,0,0,1,1.35.94,2.32,2.32,0,0,0,2-1.25,3.64,3.64,0,0,0-1.42-1.63,4,4,0,0,1,2.37,1.35,2.44,2.44,0,0,0,.61-1.12s.25-1-1.44-2.1a4.21,4.21,0,0,1,2.16,1.2,4.67,4.67,0,0,0,.7-1,3.35,3.35,0,0,0-1.56-2.07,5.49,5.49,0,0,1,2,1.11A1.81,1.81,0,0,0,52,50Z"/><path class="cls-1" d="M23.71,47.46a9.11,9.11,0,0,0,1.18,1.21,40.09,40.09,0,0,1,4.32-3.16,5.83,5.83,0,0,0-1-1.89A48,48,0,0,0,23.71,47.46Z"/><path class="cls-1" d="M18.46,55.36l.05,0a36.82,36.82,0,0,1,5-5.49,6,6,0,0,1-.85-1.22A23.8,23.8,0,0,0,18.46,55.36Z"/><path class="cls-1" d="M5.45,64.13a6.86,6.86,0,0,1-.67.65,2.68,2.68,0,0,0,.44,1.91c.32-.36.47-.55.47-.55a2.28,2.28,0,0,1-.36,1.61,1.8,1.8,0,0,0,1.35.92,5.24,5.24,0,0,0,1.2-1.5,4.13,4.13,0,0,1-.35,1.49,1.92,1.92,0,0,0,1.65.43,3.18,3.18,0,0,0,.88-1.35,2.38,2.38,0,0,1,.08,1,3.22,3.22,0,0,0,1.22-.51,7.28,7.28,0,0,0,.36-1.63A6.65,6.65,0,0,1,5.45,64.13Z"/><path class="cls-1" d="M86.5,49.06c.16.55-.25.8-1.47.8a13,13,0,0,1-7.72-3.13A24.31,24.31,0,0,1,71,43.44a8.42,8.42,0,0,0-.32.87,10.84,10.84,0,0,1,0-1.13,10.65,10.65,0,0,1-1.76-1.69,7.49,7.49,0,0,0-.15,2.44c1.39,1.21,4.24,3.42,7.17,3.86,0,0-.71,1.67,2,2.7a10.07,10.07,0,0,0,.9,1.65,2.78,2.78,0,0,0,2.46.4,1.75,1.75,0,0,0-.11-2.36,2.07,2.07,0,0,1,.91,2.57s.45.87,1.83.43a3.12,3.12,0,0,0-.06-2.61,2.47,2.47,0,0,1,.77,2.78,1.66,1.66,0,0,0,1.47.09s.87-1.39.15-2.41a1.94,1.94,0,0,1,.67,1.75C88.09,51.82,88.17,50.33,86.5,49.06Z"/><path class="cls-1" d="M63.64,40.81a5.15,5.15,0,0,1-1.71-.71,12.78,12.78,0,0,1-.73,1.25,9.52,9.52,0,0,0,2.23,1.11A6.85,6.85,0,0,1,63.64,40.81Z"/><path class="cls-1" d="M65.45,43a11,11,0,0,0,1.77.14,4.34,4.34,0,0,1,.84-1.78,18.84,18.84,0,0,1-2.77-.21A6.75,6.75,0,0,0,65.45,43Z"/><polygon class="cls-1" points="76.89 59.45 76.89 57.81 77.46 57.81 77.46 57.62 76.16 57.62 76.16 57.81 76.7 57.81 76.7 59.45 76.89 59.45"/><polygon class="cls-1" points="79.29 59.45 79.29 57.62 78.98 57.62 78.51 59.11 78.04 57.62 77.72 57.62 77.72 59.45 77.92 59.45 77.92 57.9 78.41 59.45 78.61 59.45 79.09 57.9 79.09 59.45 79.29 59.45"/><path class="cls-2" d="M43.84,24.68c-1-.24-2-.43-2.75-.55-.22.31-.46.64-.68,1,.91.06,1.82.17,2.7.31A7.19,7.19,0,0,1,43.84,24.68Z"/><path class="cls-2" d="M57.55,24.77a2.94,2.94,0,0,1,.38.75,29.94,29.94,0,0,1,3.36-.42c-.22-.33-.45-.66-.67-1A30.27,30.27,0,0,0,57.55,24.77Z"/><path class="cls-2" d="M56.36,20.58c.49.2,2.18,1.13,2.54,2.21l-.77,0a2.82,2.82,0,0,1-1.61,1,3.48,3.48,0,0,1,.6.49,15.18,15.18,0,0,1,3.34-.37l-.72-1a8.37,8.37,0,0,1,3.17-2.82,14.88,14.88,0,0,0-4,1.53A8.54,8.54,0,0,0,56.49,20c-2.15-.68-5.64.77-5.64.77s-3.49-1.45-5.63-.77a10.62,10.62,0,0,0-2.74,2l-.15-.8a9.18,9.18,0,0,0-2.94-.9A8.7,8.7,0,0,1,42,22.92s-.31.42-.71,1a15.12,15.12,0,0,1,3.17.33,8.35,8.35,0,0,1,.74-.47,2.83,2.83,0,0,1-1.58-1l-.76,0c.36-1.08,2.06-2,2.55-2.21,1.18-.46,4.82.58,4.82,1.57L49,23h3.65l-1.15-.82C51.54,21.16,55.17,20.12,56.36,20.58Z"/><path class="cls-2" d="M19.21,41.22a.88.88,0,0,0-.26-.58c-.89.62-1.71,1.15-2.46,1.6a1.78,1.78,0,0,1,.62,1.17C17.7,42.85,18.41,42.12,19.21,41.22Z"/><path class="cls-2" d="M13.55,43.77a2.86,2.86,0,0,1,.73,1.72c.28-.19.58-.38.91-.58a2.24,2.24,0,0,0-.75-1.55C14.13,43.52,13.83,43.65,13.55,43.77Z"/><path class="cls-2" d="M15.31,37.2A2.82,2.82,0,0,1,15.8,35a11.11,11.11,0,0,0-1.39.22,4.35,4.35,0,0,1,.47-.54,19.67,19.67,0,0,0-2.34.55,4.19,4.19,0,0,0,.09,2.51A11.33,11.33,0,0,1,15.31,37.2Z"/><path class="cls-2" d="M8.25,41A6.58,6.58,0,0,1,11,38.39,2.81,2.81,0,0,1,10.35,36a12.71,12.71,0,0,0-1.73,1,2.63,2.63,0,0,0,.53,1.79s-.8.23-1.6-.94a8.59,8.59,0,0,0-1.27,1.43A2.86,2.86,0,0,0,8.25,41Z"/><path class="cls-2" d="M8.06,44a1.85,1.85,0,0,1-.34-1.33A2.78,2.78,0,0,1,5.3,41.39a5.16,5.16,0,0,0,.23,3.25A3.08,3.08,0,0,0,8.06,44Z"/><path class="cls-2" d="M9.14,44.61a4.2,4.2,0,0,1-2.21,1.7,4.22,4.22,0,0,0,2.86.75c.33-.47.77-1.22.64-1.7a2,2,0,0,1,.69,1.53,10.67,10.67,0,0,0,1.66-.49,2.4,2.4,0,0,0-.62-2.11A5.91,5.91,0,0,1,9.14,44.61Z"/><path class="cls-2" d="M48.67,18.85a2,2,0,0,0-.55-.49,7.3,7.3,0,0,1,3.57.81c.45-.11,1-.26,1.67-.4a5.59,5.59,0,0,0-2-1.24l.19.63c-3.5-1.58-8.11-.44-10.94.91.9.22,1.62.46,1.62.46A7.57,7.57,0,0,1,48.67,18.85Z"/><path class="cls-2" d="M44,49.22a6.52,6.52,0,0,0-2,.86,5,5,0,0,1,.6-1,30.3,30.3,0,0,0-2.07-4.35c-2.4-.27-4.34,2.18-4.34,2.18a4.82,4.82,0,0,1,3.48-3.71c-.53-.92-.91-1.55-.91-1.55a5.88,5.88,0,0,0,.4-1.41c-3.1-1.64-6.77,1.45-6.77,1.45C34,38.13,37.7,38,39.31,38.1A17.63,17.63,0,0,0,39,35.72,15.21,15.21,0,0,0,36.5,37.1a17.67,17.67,0,0,1,1.11-6.62,7.53,7.53,0,0,0-3.73.17A10.47,10.47,0,0,1,38.2,29.1a11.27,11.27,0,0,1,1-1.66,15.48,15.48,0,0,0-2.25.11,7.22,7.22,0,0,1,1.53-2.13c-1.18-.07-2-.09-2-.09a10.87,10.87,0,0,1,2.21-.27,6.54,6.54,0,0,1-1.53-3.86q-.7.53-1.44,1.11c.92,1.22.64,2,.64,2a2.34,2.34,0,0,0-1.52-1.24c-.34.3-.68.62-1,.95A3.28,3.28,0,0,1,35,28.14a3.36,3.36,0,0,0-2.65-2.69,48,48,0,0,0-3.93,4.8,24.27,24.27,0,0,0-1.23,6A6.7,6.7,0,0,1,26.7,33c-.4.67-.86,1.43-1.38,2.24a10.77,10.77,0,0,0,.94,4.43,4.2,4.2,0,0,1-2.13-2.6c-.37.54-.75,1.09-1.15,1.64a14.26,14.26,0,0,0,2.54,6.08A8.42,8.42,0,0,1,21.7,40.4a31,31,0,0,1-3.16,3.46c.3,2.38,2.77,4,2.09,5.94-.38-1.85-2.92-2.55-3.78-4.56-.23.19-1.65,1-2.42,1.67a3.43,3.43,0,0,1,2,3.37A3.78,3.78,0,0,0,13,48.4a5.15,5.15,0,0,0-.9,3.86s-1.82.73-2.23.47A11.24,11.24,0,0,0,9,55a7.47,7.47,0,0,0,1.59,3,3.19,3.19,0,0,1-2-1.35c-.06.28-.11.57-.16.88a6.3,6.3,0,0,0,2.45,2.22A2.69,2.69,0,0,1,8,59.25a12.51,12.51,0,0,1-2.55,4.88,6.65,6.65,0,0,0,6.27,2.42c.11-.84.16-1.68.3-2.37a3.3,3.3,0,0,1-3-2.72,3.69,3.69,0,0,0,3.3,1.26,22.27,22.27,0,0,1,1-3.37,4.88,4.88,0,0,1-1.27-3,6.3,6.3,0,0,0,4,3l.3-.58a4.69,4.69,0,0,1-2.12-3.17A5.88,5.88,0,0,0,17,57.69c.12-.18.23-.37.34-.55-2.31-2.38-1.24-5.35-3.72-6.59,3.28.36,3.28,3.8,4.87,4.81a23.8,23.8,0,0,1,4.17-6.68,7.73,7.73,0,0,1-.77-4.61,10.37,10.37,0,0,0,1.85,3.39,48,48,0,0,1,4.48-3.84,1.82,1.82,0,0,0-1.31-.79,21.6,21.6,0,0,1,2.81-9.94c-.24,0-.86.24-.86.24A10.68,10.68,0,0,1,33,27.53a10.48,10.48,0,0,0-2.5,4A16.44,16.44,0,0,1,32.14,31a16,16,0,0,0-2.33,4.71c1-.72,4-2.72,6-1.73a11.16,11.16,0,0,0-6.95,5.35c-.12.62-.21,1.17-.27,1.59.63-1,2.61-3.76,5.43-3.37,0,0-3.31.54-4.49,5,1,1.14,1,2.5,1.91,3.62a4.54,4.54,0,0,1,4.27-3A5.31,5.31,0,0,0,33,47.93a9.51,9.51,0,0,0,2.67,2.51,3.33,3.33,0,0,1,2.63-2.29,3.7,3.7,0,0,0-1.15,3.26c.85.51,1.5.82,1.71.92a13.07,13.07,0,0,1,.59-1.67,5.7,5.7,0,0,0-.18,1.82c.66,1.94,3.34,1.68,3.34,1.68s5.72-2,5.95-6.11A7.54,7.54,0,0,1,44,49.22Z"/><path class="cls-2" d="M73.71,37.92a12.91,12.91,0,0,0-2.34-1.26A7,7,0,0,0,68,39.47a4.79,4.79,0,0,1,2-3.85,21.32,21.32,0,0,0-2.19-4.1c-.14,3.08-1.25,3.71-1.25,3.71a11.41,11.41,0,0,0-.78-6.17,14.26,14.26,0,0,0-1.81-1.54,6.27,6.27,0,0,0-1.23,0,16.2,16.2,0,0,1,2.49,9.61,16.47,16.47,0,0,0-3.07-1.68s.34,1.13.43,1.67a5.69,5.69,0,0,0-1.61-.67,6.43,6.43,0,0,1,0,2.88,11.92,11.92,0,0,0-2.41-.62,9.35,9.35,0,0,1-2.7,5.14c3.12-2.64,3.71-3.93,3.71-3.93a4.38,4.38,0,0,1-.19,1.64,24.06,24.06,0,0,0,3.37-3.32,10.48,10.48,0,0,1-.75,1.89,5.15,5.15,0,0,0,1.71.71A4.62,4.62,0,0,1,67,37.19a6,6,0,0,0-1.7,3.94,18.84,18.84,0,0,0,2.77.21,3.89,3.89,0,0,1,1.36-1.13,4.48,4.48,0,0,0-.54,1.28,10.65,10.65,0,0,0,1.76,1.69A6.4,6.4,0,0,1,73.71,37.92Z"/><path class="cls-2" d="M81.52,47.18a3.89,3.89,0,0,1,1.3-.25C79.7,45,79,43.32,77.76,41.83a6.64,6.64,0,0,0-3.55,1.82,4,4,0,0,1,2.58-3,14.52,14.52,0,0,0-1-1.05c-2.8.1-4.21,2.52-4.78,3.86a24.31,24.31,0,0,0,6.33,3.29A13,13,0,0,0,85,49.86c1.22,0,1.63-.25,1.47-.8A12,12,0,0,0,81.52,47.18Z"/><path class="cls-3" d="M52.66,30.48c-1.64-.61-1.8,2.09-1.81,2.87,0-.78-.17-3.48-1.81-2.87,0,0,1.06,2.1.22,3.48s-.11,3.42.38,3.58a3.7,3.7,0,0,0,1.21.12,3.78,3.78,0,0,0,1.22-.12c.49-.16,1.17-2.26.37-3.58S52.66,30.48,52.66,30.48Z"/><path class="cls-4" d="M4.05,67l.38.53-.25.26a3,3,0,0,0,.49,1,3.55,3.55,0,0,1-.73,1.12,2.7,2.7,0,0,0,1.63-.35,2.74,2.74,0,0,0,1.18.28l.15-.17.5.3a2.25,2.25,0,0,1-.53,1,2.19,2.19,0,0,0,1.55-.68,2.24,2.24,0,0,0,1.22-.2,1.8,1.8,0,0,1-.28.8,2.63,2.63,0,0,0,1.5-1.27,4,4,0,0,0,2.13-1,43.93,43.93,0,0,1,1.15-7.79,4.85,4.85,0,0,0,3.92-.19,41.88,41.88,0,0,1,5.24-5.32A33.72,33.72,0,0,0,26,58.33a13.37,13.37,0,0,0-.79,4.76,5.6,5.6,0,0,1-2,4.29,1.31,1.31,0,0,0,.41.82,2.29,2.29,0,0,1-.53,1.19,2.39,2.39,0,0,0,1.4-.55l.06,0,0,.85a1.59,1.59,0,0,0,.66.46,2.51,2.51,0,0,1-.25,1,2.26,2.26,0,0,0,1.34-.75l.64,0,.67-.49A2.66,2.66,0,0,1,27.48,71a3,3,0,0,0,1.34-1.17l.5-.13.43-.7a2.92,2.92,0,0,1,0,.78,3.53,3.53,0,0,0,.91-1.46,4.85,4.85,0,0,0,.46-.3,28.06,28.06,0,0,0,.44-5.25,33.25,33.25,0,0,0,45.28-9.58A3.17,3.17,0,0,0,78.2,54a2.36,2.36,0,0,1-.67,1.13,2.76,2.76,0,0,0,2.36-.91,6.85,6.85,0,0,0,1.22-.12,3,3,0,0,0,.44.39A2.25,2.25,0,0,1,81,55.64a1.91,1.91,0,0,0,2.15-.7,1.81,1.81,0,0,0,.69-.24,3,3,0,0,0,.53.27,1.58,1.58,0,0,1-.55.72,1.9,1.9,0,0,0,1.93-.58,2.06,2.06,0,0,0,.76-.3.89.89,0,0,0,.24-.12,4.62,4.62,0,0,1-.22.48c.69.11,1.24-.71,1.53-1.27a3,3,0,0,0,1.34-2.65c0-3.07-3.48-3.89-3.48-3.89A18.39,18.39,0,0,1,81.21,44a33.25,33.25,0,1,0-65.14-10.5C13.5,33.81,4,35.54,4,42.81A5.41,5.41,0,0,0,9.7,48.46a8.86,8.86,0,0,0,1.84-.24A4.44,4.44,0,0,0,10.86,51s-.4.46-2,.68c-2.42,3.22-.43,8.42-5.24,12.55a4,4,0,0,0,0,1.73,2.52,2.52,0,0,1-1.27.92A2.22,2.22,0,0,0,4.05,67ZM28.16,56.72a3.23,3.23,0,0,1-1,.64,32.79,32.79,0,0,1-2.69-3,33.67,33.67,0,0,1,4.42-3A11,11,0,0,0,28.16,56.72Zm21.13,9.64a31.56,31.56,0,0,1-16.24-4.47,13.71,13.71,0,0,0,1.48,0,19.08,19.08,0,0,0,4.88-5.2c1.76,1.62,5.55.57,5.55.57l1.6.66a8.13,8.13,0,0,0,1.52-.36,1.91,1.91,0,0,1,.56,1.25,1.82,1.82,0,0,0,.41-1.76,1.77,1.77,0,0,0,.59-.73,3.13,3.13,0,0,0,.36-.22,2.71,2.71,0,0,1,.83,1.2,2.25,2.25,0,0,0,0-2,2.89,2.89,0,0,0,.37-.68l0-.09a2.73,2.73,0,0,0,.25-.23,2.55,2.55,0,0,1,.74,1.25,2.25,2.25,0,0,0,0-2.29,4.14,4.14,0,0,0,.22-.47,2,2,0,0,0,0-.43,3.65,3.65,0,0,0,.27-.3,1.83,1.83,0,0,1,.6,1.26,3.06,3.06,0,0,0,.12-2.53,3.25,3.25,0,0,0,.21-1c-.7-3.17-5.14-3-5.14-3a9.5,9.5,0,0,1-4.32,1.29L43.47,47c3-.3,3.65-1.46,6.38-1.46a6.14,6.14,0,0,1,4.35,1.59,19.22,19.22,0,0,0,5.54-4c2.3,1.61,7.34,1.4,7.34,1.4,2.53,2.84,7.13,4.28,7.13,4.28a1.85,1.85,0,0,0,.7,2.13,2.9,2.9,0,0,0,.32,1.93A31.69,31.69,0,0,1,49.29,66.36ZM40.56,35.25a5.52,5.52,0,0,1,.4-2,6.49,6.49,0,0,0-2.4,1c.27-5.53,3-7.81,3-7.81a4.93,4.93,0,0,0-1.94-.16c.13-.22.31-.5.5-.8.9.09,1.83.2,2.65.36a2.59,2.59,0,0,0-.29,2.25,10.07,10.07,0,0,0-2.54,4.4,5.9,5.9,0,0,1,2.44-1s-.17.67-.54,2.18c0,0,1-.28,2.51-.58A21.23,21.23,0,0,0,43.85,36s2-.54,2.78-.13c-.11.57-.87,4.54,1.76,5.23a1.27,1.27,0,0,0,.84-.14,6.49,6.49,0,0,1,1.62-.29,6.49,6.49,0,0,1,1.63.29,1.25,1.25,0,0,0,.84.14c2.63-.69,1.88-4.21,1.76-4.78A19,19,0,0,1,55,34.05c.33,0,1.46.21,1.46.21a3.54,3.54,0,0,1,1.6-4.54,2.6,2.6,0,0,0-.65-1.28,3.81,3.81,0,0,0,.65-2.33,23.84,23.84,0,0,1,3.55-.56c.19.3.37.58.5.8a11.45,11.45,0,0,0-1.6.16s3.07,4.61,2.91,7.89a6.35,6.35,0,0,0-2.81-.68,6.26,6.26,0,0,1,.34,1.12,14.49,14.49,0,0,0-2.24-.4,5.18,5.18,0,0,1,.26,2.8,6.14,6.14,0,0,0-3-.38s.78,3.89-1.09,4.74a9.72,9.72,0,0,1-4,.84,9.88,9.88,0,0,1-4-.84c-1.76-.66-1.09-4.74-1.09-4.74a7.12,7.12,0,0,0-2.67.38,5.18,5.18,0,0,1,.26-2.8A17.55,17.55,0,0,0,40.56,35.25ZM51.38,17.53a5.59,5.59,0,0,1,2,1.24c-.63.14-1.22.29-1.67.4a7.3,7.3,0,0,0-3.57-.81,2,2,0,0,1,.55.49,7.57,7.57,0,0,0-6.42.68s-.72-.24-1.62-.46c2.83-1.35,7.44-2.49,10.94-.91Zm-9.05,3.65.15.8a10.62,10.62,0,0,1,2.74-2c2.14-.68,5.63.77,5.63.77s3.49-1.45,5.64-.77a8.54,8.54,0,0,1,2.41,1.66,14.88,14.88,0,0,1,4-1.53,5,5,0,0,1-1.07,3.81,10.26,10.26,0,0,0,0-2.15s-.55-.05-2.14,1.16l.72,1a15.18,15.18,0,0,0-3.34.37,3.48,3.48,0,0,0-.6-.49,6.25,6.25,0,0,0-.9-.51c-.39-.15-.48-.62-.07-.62a.46.46,0,0,1,.48.43l.86-.39,1.24.05.77,0-2.35-1.5-3,1.27-2.05-.41,1.15.82H49l1.15-.82-2.06.41-3-1.27-2.36,1.5.76,0,1.25-.05.87.4a.44.44,0,0,1,.48-.46c.45,0,.28.56-.1.63s-.6.3-.92.5a8.35,8.35,0,0,0-.74.47,15.12,15.12,0,0,0-3.17-.33c.4-.57.71-1,.71-1a8.7,8.7,0,0,0-2.57-2.64A9.18,9.18,0,0,1,42.33,21.18Zm19,3.92a29.94,29.94,0,0,0-3.36.42,2.94,2.94,0,0,0-.38-.75,30.27,30.27,0,0,1,3.07-.64C60.84,24.44,61.07,24.77,61.29,25.1Zm-4.5,1.72A4.64,4.64,0,0,1,55.91,28L52,27.27,51.41,26c.63-.86,3.29-2,3.29-2a10.76,10.76,0,0,1,1.16.53,17,17,0,0,0-2.33.83l2.89-.27.13,0a1.54,1.54,0,0,1,.37.61c-2.27.47-4,1-4,1ZM44.86,25.73a1.52,1.52,0,0,1,.36-.61l.07,0,2.89.27a16.62,16.62,0,0,0-2.28-.81,9.66,9.66,0,0,1,1.19-.55s2.66,1.09,3.29,2l-.56,1.26L45.88,28A4.64,4.64,0,0,1,45,26.82l3.75-.1S47.1,26.19,44.86,25.73ZM49,30.48c1.64-.61,1.8,2.09,1.81,2.87,0-.78.17-3.48,1.81-2.87,0,0-1,2.1-.22,3.48s.12,3.42-.37,3.58a3.78,3.78,0,0,1-1.22.12,3.7,3.7,0,0,1-1.21-.12c-.49-.16-1.18-2.26-.38-3.58S49,30.48,49,30.48Zm3.74-1-.67-.29-.41.26-.43-.26-.42.26-.41-.26-.43.26-.42-.26-.67.29c-.76-.74-.14-1.28-.14-1.28l.86.47h2.42l.87-.47S53.55,28.7,52.78,29.44Zm-4.2-5.76h4.55l-2.28.65Zm-2.42,5.14a2.4,2.4,0,0,1,1.71-.49s-1.19,2.29-.09,4.14C47.78,32.47,46,31.74,46.16,28.82Zm1.51,8a4.7,4.7,0,0,0,1.81,2.21l.5-.33.49.33.38-.33.38.33.49-.33.51.33A4.64,4.64,0,0,0,54,36.86a2.88,2.88,0,0,1-.9,3l-.92-.26a3.29,3.29,0,0,1-1.36.26,3.21,3.21,0,0,1-1.35-.26l-.92.26A2.87,2.87,0,0,1,47.67,36.86Zm6.25-4.39c1.1-1.85-.08-4.14-.08-4.14a2.4,2.4,0,0,1,1.71.49C55.67,31.74,53.92,32.47,53.92,32.47ZM43.84,24.68a7.19,7.19,0,0,0-.73.73c-.88-.14-1.79-.25-2.7-.31.22-.33.46-.66.68-1C41.85,24.25,42.88,24.44,43.84,24.68Zm39,22.25a3.89,3.89,0,0,0-1.3.25,12,12,0,0,1,5,1.88c1.67,1.27,1.59,2.76.43,3.72A1.94,1.94,0,0,0,86.26,51c.72,1-.15,2.41-.15,2.41a1.66,1.66,0,0,1-1.47-.09,2.47,2.47,0,0,0-.77-2.78,3.12,3.12,0,0,1,.06,2.61c-1.38.44-1.83-.43-1.83-.43a2.07,2.07,0,0,0-.91-2.57,1.75,1.75,0,0,1,.11,2.36,2.78,2.78,0,0,1-2.46-.4,10.07,10.07,0,0,1-.9-1.65c-2.75-1-2-2.7-2-2.7-2.93-.44-5.78-2.65-7.17-3.86a7.49,7.49,0,0,1,.15-2.44,4.48,4.48,0,0,1,.54-1.28,3.89,3.89,0,0,0-1.36,1.13,4.34,4.34,0,0,0-.84,1.78A11,11,0,0,1,65.45,43a6.75,6.75,0,0,1-.16-1.85A6,6,0,0,1,67,37.19a4.62,4.62,0,0,0-3.35,3.62,6.85,6.85,0,0,0-.21,1.65,9.52,9.52,0,0,1-2.23-1.11,12.78,12.78,0,0,0,.73-1.25,10.48,10.48,0,0,0,.75-1.89,24.06,24.06,0,0,1-3.37,3.32,4.38,4.38,0,0,0,.19-1.64s-.59,1.29-3.71,3.93a9.35,9.35,0,0,0,2.7-5.14,11.92,11.92,0,0,1,2.41.62,6.43,6.43,0,0,0,0-2.88,5.69,5.69,0,0,1,1.61.67c-.09-.54-.43-1.67-.43-1.67a16.47,16.47,0,0,1,3.07,1.68,16.2,16.2,0,0,0-2.49-9.61,6.27,6.27,0,0,1,1.23,0,14.26,14.26,0,0,1,1.81,1.54,11.41,11.41,0,0,1,.78,6.17s1.11-.63,1.25-3.71a21.32,21.32,0,0,1,2.19,4.1,4.79,4.79,0,0,0-2,3.85,7,7,0,0,1,3.41-2.81,12.91,12.91,0,0,1,2.34,1.26,6.4,6.4,0,0,0-3.07,5.26,10.84,10.84,0,0,0,0,1.13,8.42,8.42,0,0,1,.32-.87c.57-1.34,2-3.76,4.78-3.86a14.52,14.52,0,0,1,1,1.05,4,4,0,0,0-2.58,3,6.64,6.64,0,0,1,3.55-1.82C79,43.32,79.7,45,82.82,46.93Zm-33.53-44A31.75,31.75,0,0,1,80,42.63c-2.71-3.24-3.93-6.44-8.9-8A20.22,20.22,0,0,0,64,25.38l1.3-.05a10.41,10.41,0,0,0-1.74-.25l-.3-.19c1.38-1.53,1.71-5,1.11-5.87s-4.93.51-4.93.51a9.53,9.53,0,0,0-3.93-1.09,9.66,9.66,0,0,0-6.16-3,4.55,4.55,0,0,1,.41.89,18.05,18.05,0,0,0-11.26,2.39c-1.32-.09-1.32.5-1.41.87C29.1,24.81,26.34,31.9,23,36.43c-1.28,1-3.05,2.4-4.94,3.72-.12-.7-.23-1.4-.3-2.11a2,2,0,0,0,1.75-2.12c0-1.11-1-1.57-1.92-1.76A31.71,31.71,0,0,1,49.29,2.94Zm-39,40.84c-.88,0-1.4-.32-1.4-1.09,0-2.39,3.75-4.5,6.84-4.5h.53c.1,1,.25,2,.44,2.9C14.35,42.59,12,43.78,10.26,43.78Zm4.93,1.13c-.33.2-.63.39-.91.58a2.86,2.86,0,0,0-.73-1.72c.28-.12.58-.25.89-.41A2.24,2.24,0,0,1,15.19,44.91ZM19,40.64a.88.88,0,0,1,.26.58c-.8.9-1.51,1.63-2.1,2.19a1.78,1.78,0,0,0-.62-1.17C17.24,41.79,18.06,41.26,19,40.64ZM12.54,35.2a19.67,19.67,0,0,1,2.34-.55,4.35,4.35,0,0,0-.47.54A11.11,11.11,0,0,1,15.8,35a2.82,2.82,0,0,0-.49,2.23,11.33,11.33,0,0,0-2.68.51A4.19,4.19,0,0,1,12.54,35.2Zm-5,2.68c.8,1.17,1.6.94,1.6.94A2.63,2.63,0,0,1,8.62,37a12.71,12.71,0,0,1,1.73-1A2.81,2.81,0,0,0,11,38.39,6.58,6.58,0,0,0,8.25,41a2.86,2.86,0,0,1-2-1.71A8.59,8.59,0,0,1,7.55,37.88Zm-2,6.76a5.16,5.16,0,0,1-.23-3.25,2.78,2.78,0,0,0,2.42,1.24A1.85,1.85,0,0,0,8.06,44,3.08,3.08,0,0,1,5.53,44.64Zm5.59,2.25a2,2,0,0,0-.69-1.53c.13.48-.31,1.23-.64,1.7a4.22,4.22,0,0,1-2.86-.75,4.2,4.2,0,0,0,2.21-1.7,5.91,5.91,0,0,0,3-.32,2.4,2.4,0,0,1,.62,2.11A10.67,10.67,0,0,1,11.12,46.89ZM4.78,64.78a6.86,6.86,0,0,0,.67-.65A12.51,12.51,0,0,0,8,59.25a2.69,2.69,0,0,0,2.83.53,6.3,6.3,0,0,1-2.45-2.22c0-.31.1-.6.16-.88a3.19,3.19,0,0,0,2,1.35A7.47,7.47,0,0,1,9,55a11.24,11.24,0,0,1,.92-2.27c.41.26,2.23-.47,2.23-.47A5.15,5.15,0,0,1,13,48.4a3.78,3.78,0,0,1,3.42,1.88,3.43,3.43,0,0,0-2-3.37c.77-.64,2.19-1.48,2.42-1.67.86,2,3.4,2.71,3.78,4.56.68-1.94-1.79-3.56-2.09-5.94A31,31,0,0,0,21.7,40.4a8.42,8.42,0,0,0,3.82,4.39A14.26,14.26,0,0,1,23,38.71c.4-.55.78-1.1,1.15-1.64a4.2,4.2,0,0,0,2.13,2.6,10.77,10.77,0,0,1-.94-4.43c.52-.81,1-1.57,1.38-2.24a6.7,6.7,0,0,0,.45,3.21,24.27,24.27,0,0,1,1.23-6,48,48,0,0,1,3.93-4.8A3.36,3.36,0,0,1,35,28.14,3.28,3.28,0,0,0,33.72,24c.35-.33.69-.65,1-.95a2.34,2.34,0,0,1,1.52,1.24s.28-.78-.64-2q.73-.58,1.44-1.11a6.54,6.54,0,0,0,1.53,3.86,10.87,10.87,0,0,0-2.21.27s.87,0,2,.09a7.22,7.22,0,0,0-1.53,2.13,15.48,15.48,0,0,1,2.25-.11,11.27,11.27,0,0,0-1,1.66,10.47,10.47,0,0,0-4.32,1.55,7.53,7.53,0,0,1,3.73-.17A17.67,17.67,0,0,0,36.5,37.1,15.21,15.21,0,0,1,39,35.72a17.63,17.63,0,0,1,.29,2.38c-1.61-.12-5.29,0-6.88,3.56,0,0,3.67-3.09,6.77-1.45a5.88,5.88,0,0,1-.4,1.41s.38.63.91,1.55a4.82,4.82,0,0,0-3.48,3.71s1.94-2.45,4.34-2.18a30.3,30.3,0,0,1,2.07,4.35,5,5,0,0,0-.6,1,6.52,6.52,0,0,1,2-.86,7.54,7.54,0,0,0,4.59-1.17A3.69,3.69,0,0,1,52,50a1.81,1.81,0,0,1-.41,1,5.49,5.49,0,0,0-2-1.11,3.35,3.35,0,0,1,1.56,2.07,4.67,4.67,0,0,1-.7,1,4.21,4.21,0,0,0-2.16-1.2c1.69,1.13,1.44,2.1,1.44,2.1a2.44,2.44,0,0,1-.61,1.12,4,4,0,0,0-2.37-1.35,3.64,3.64,0,0,1,1.42,1.63,2.32,2.32,0,0,1-2,1.25,7.16,7.16,0,0,0-1.35-.94c-4.35.59-5.33-1.43-5.45-3.05a5.7,5.7,0,0,1,.18-1.82,13.07,13.07,0,0,0-.59,1.67c-.21-.1-.86-.41-1.71-.92a3.7,3.7,0,0,1,1.15-3.26,3.33,3.33,0,0,0-2.63,2.29A9.51,9.51,0,0,1,33,47.93a5.31,5.31,0,0,1,2.71-4.71,4.54,4.54,0,0,0-4.27,3c-.92-1.12-.92-2.48-1.91-3.62,1.18-4.46,4.49-5,4.49-5-2.82-.39-4.8,2.35-5.43,3.37.06-.42.15-1,.27-1.59a11.16,11.16,0,0,1,7-5.35c-2-1-5,1-6,1.73A16,16,0,0,1,32.14,31a16.44,16.44,0,0,0-1.64.47,10.48,10.48,0,0,1,2.5-4,10.68,10.68,0,0,0-4.17,5.6s.62-.2.86-.24a21.6,21.6,0,0,0-2.81,9.94,1.82,1.82,0,0,1,1.31.79,5.83,5.83,0,0,1,1,1.89,40.09,40.09,0,0,0-4.32,3.16,9.11,9.11,0,0,1-1.18-1.21,10.37,10.37,0,0,1-1.85-3.39,7.73,7.73,0,0,0,.77,4.61,6,6,0,0,0,.85,1.22,36.82,36.82,0,0,0-5,5.49l-.05,0c-1.59-1-1.59-4.45-4.87-4.81,2.48,1.24,1.41,4.21,3.72,6.59-.11.18-.22.37-.34.55a5.88,5.88,0,0,1-2.74-2.09,4.69,4.69,0,0,0,2.12,3.17l-.3.58a6.3,6.3,0,0,1-4-3,4.88,4.88,0,0,0,1.27,3,22.27,22.27,0,0,0-1,3.37A3.69,3.69,0,0,1,9,61.46a3.3,3.3,0,0,0,3,2.72c-.14.69-.19,1.53-.3,2.37a7.28,7.28,0,0,1-.36,1.63,3.22,3.22,0,0,1-1.22.51,2.38,2.38,0,0,0-.08-1,3.18,3.18,0,0,1-.88,1.35,1.92,1.92,0,0,1-1.65-.43,4.13,4.13,0,0,0,.35-1.49,5.24,5.24,0,0,1-1.2,1.5,1.8,1.8,0,0,1-1.35-.92,2.28,2.28,0,0,0,.36-1.61s-.15.19-.47.55A2.68,2.68,0,0,1,4.78,64.78Z"/><path class="cls-4" d="M58,33.2a10.2,10.2,0,0,1,1.93.2A8.53,8.53,0,0,0,59.69,32a11.08,11.08,0,0,1,2.06.17s-1-3.51-2.92-5a9.64,9.64,0,0,1,.79,3.5,6.71,6.71,0,0,0-1.4.07,5.85,5.85,0,0,1,.32,1.58,5,5,0,0,0-1.56.05,9.92,9.92,0,0,1,1.09,3.57A16.53,16.53,0,0,0,58,33.2Z"/><polygon class="cls-4" points="49.13 21.57 46.46 20.89 48.1 22.08 49.13 21.57"/><polygon class="cls-4" points="55.27 20.89 52.6 21.57 53.63 22.08 55.27 20.89"/><polygon class="cls-4" points="39.84 62.88 40.62 63.12 41.22 61.1 42.27 61.41 42.47 60.73 41.42 60.42 41.77 59.25 43.17 59.66 43.37 58.98 41.19 58.33 39.84 62.88"/><path class="cls-4" d="M46.38,59.43A1.14,1.14,0,0,0,45,60.49l-.29,2.43a1.25,1.25,0,0,0,2.48.29l.29-2.43A1.14,1.14,0,0,0,46.38,59.43Zm.29,1.28-.29,2.39c0,.35-.16.5-.49.47s-.41-.22-.37-.58l.29-2.38c0-.36.16-.52.49-.48S46.71,60.36,46.67,60.71Z"/><path class="cls-4" d="M51,59.54a1.14,1.14,0,0,0-1.16,1.3L50,63.28a1.15,1.15,0,0,0,1.33,1.13,1.13,1.13,0,0,0,1.16-1.3l-.16-2.44A1.15,1.15,0,0,0,51,59.54Zm.29,4.16c-.32,0-.44-.14-.46-.5l-.17-2.4c0-.35.07-.53.39-.55s.45.14.47.49l.17,2.4C51.71,63.5,51.62,63.67,51.29,63.7Z"/><polygon class="cls-4" points="56.37 59.41 56.2 58.72 53.88 59.27 54.04 59.96 54.81 59.78 55.74 63.7 56.53 63.52 55.6 59.59 56.37 59.41"/><path class="cls-4" d="M60.4,59.55a1,1,0,0,0,.14-1.14,1.12,1.12,0,0,0-1.65-.67l-1.11.47,1.82,4.38,1.19-.5a1.19,1.19,0,0,0,.65-1.76A1.09,1.09,0,0,0,60.4,59.55Zm-1.62-1,.29-.12q.49-.2.75.42a.54.54,0,0,1-.27.77l-.27.11Zm1.63,3-.31.13-.56-1.34.24-.1c.45-.19.71,0,.9.41S60.81,61.36,60.41,61.52Z"/><path class="cls-4" d="M62.27,56l1.8,4.48.67-.42-.44-1,.75-.48.68.81L66.4,59l-3.28-3.54Zm.94.53,1.36,1.55-.55.35-.82-1.89Z"/><polygon class="cls-4" points="68.51 56.43 65.83 53.41 65.22 53.95 68.37 57.5 69.94 56.11 69.47 55.58 68.51 56.43"/><polygon class="cls-4" points="71.37 53.53 68.29 50.92 67.76 51.54 71.38 54.62 72.74 53.02 72.19 52.56 71.37 53.53"/><path class="cls-4" d="M35.2,17.53A6.52,6.52,0,0,0,37.05,15l-2.57-3-2.32,2,1.09,1.28,1-.85.66.77A3.1,3.1,0,0,1,34,16.31,2.09,2.09,0,0,1,31,16a2.1,2.1,0,0,1,.15-3.11,2.23,2.23,0,0,1,1.84-.6L33,10.44a4,4,0,0,0-2.91,1.11,3.8,3.8,0,0,0-.51,5.77A3.81,3.81,0,0,0,35.2,17.53Z"/><polygon class="cls-4" points="23.27 23.71 28.6 26.15 29.35 24.51 24.03 22.07 24.89 20.19 23.41 19.51 20.94 24.93 22.41 25.6 23.27 23.71"/><rect class="cls-4" x="27.17" y="15.73" width="1.81" height="7.47" transform="translate(-4.09 30.97) rotate(-54.42)"/><polygon class="cls-4" points="43.31 12.93 42.67 11.38 39.41 12.73 38.92 11.55 41.84 10.34 41.19 8.79 38.28 9.99 37.84 8.93 40.92 7.65 40.27 6.1 35.52 8.07 38.39 14.97 43.31 12.93"/><rect class="cls-4" x="51.18" y="7.58" width="1.44" height="2.73" transform="translate(37.71 59.66) rotate(-84.15)"/><path class="cls-4" d="M61,15.47l1.4-.88,2.16,1.59-.41,1.61L65.74,19l1.81-7.94-1.17-.87-7,4.11Zm4.5-2.87-.52,2-1.19-.87Z"/><polygon class="cls-4" points="65.95 19.72 67.1 21.11 71.62 17.39 72.94 18.99 74.19 17.95 70.4 13.36 69.15 14.39 70.47 15.99 65.95 19.72"/><path class="cls-4" d="M72.85,20.14c-1.31.65-1.12,1.88-1,2.88.12.81.17,1.31-.25,1.52s-.85-.25-1-.61a1.73,1.73,0,0,1,.05-1.58l-1.84-.53a3.54,3.54,0,0,0,.24,2.77c.78,1.58,2.16,2.17,3.52,1.5s1.18-1.91,1-2.89c-.13-.77-.19-1.24.22-1.45s.84.24,1,.59a1.47,1.47,0,0,1,0,1.28l1.78.52a3.45,3.45,0,0,0-.29-2.51A2.59,2.59,0,0,0,72.85,20.14Z"/><path class="cls-4" d="M46,12.51l-.32-2.89.63-.06,1.82,2.72,2.15-.23-2.2-2.9A2,2,0,0,0,49.41,7c-.16-1.51-1.22-2.2-3.07-2l-2.9.31.8,7.44Zm.3-6c.45,0,1.14-.08,1.22.61s-.42.76-1.16.84l-.84.09L45.4,6.63Z"/><path class="cls-4" d="M57,13.86a3.28,3.28,0,0,0,3.18-.39l-1.07-1.54a1.76,1.76,0,0,1-1.63.31,2.07,2.07,0,0,1-1.17-2.73A2.06,2.06,0,0,1,58.94,8a1.58,1.58,0,0,1,1.09,1l1.68-.63a3.18,3.18,0,0,0-2-1.94,3.79,3.79,0,0,0-5.12,2.45A3.81,3.81,0,0,0,57,13.86Z"/><polygon class="cls-2" points="110.95 41.33 115.13 41.33 115.13 38.08 119.99 38.08 119.99 61.47 117.21 61.47 117.21 65.42 128.33 65.42 128.33 61.47 125.55 61.47 125.55 38.08 130.41 38.08 130.41 41.33 134.58 41.33 134.58 32.99 110.95 32.99 110.95 41.33"/><polygon class="cls-2" points="139.29 37.16 142.07 37.16 142.07 61.47 139.29 61.47 139.29 65.42 150.41 65.42 150.41 61.47 147.63 61.47 147.63 37.16 150.41 37.16 150.41 32.99 139.29 32.99 139.29 37.16"/><path class="cls-2" d="M176.64,45.49h-12.4v5.1h6.83v9.73H166.9a6.51,6.51,0,0,1-6.48-6.49V41.56a3.5,3.5,0,0,1,3.47-3.48h7.65v2.78h4.17V33H163.48a8.58,8.58,0,0,0-8.62,8.57V53.83a11.44,11.44,0,0,0,11.58,11.59h13v-4h-2.77Z"/><polygon class="cls-2" points="183.17 37.16 185.95 37.16 185.95 61.4 183.17 61.4 183.17 65.42 205.87 65.42 205.87 57.08 201.7 57.08 201.7 61.4 191.51 61.4 191.51 50.59 199.85 50.59 199.85 53.37 204.02 53.37 204.02 43.64 199.85 43.64 199.85 45.49 191.51 45.49 191.51 38.08 201.7 38.08 201.7 40.59 205.87 40.59 205.87 32.99 183.17 32.99 183.17 37.16"/><path class="cls-2" d="M229.66,53.05A5.32,5.32,0,0,0,228,50.59,9.25,9.25,0,0,0,233.83,42a9,9,0,0,0-9.08-9h-15v4.17h2.78V61.25h-2.78v4.17h11.11V61.25h-2.78V51.06h1.62a5.73,5.73,0,0,1,5.1,4.16l3.47,10.2h7.42V61.25h-3.11ZM224.75,46h-6.68V38.08h6.68a3.48,3.48,0,0,1,3.51,3.48v.92A3.48,3.48,0,0,1,224.75,46Z"/><rect class="cls-2" x="238.41" y="46.51" width="8.91" height="3.92"/><path class="cls-2" d="M252.93,41.56V53.7A11.72,11.72,0,0,0,264.7,65.42h8.61v-5.1h-8.15a6.63,6.63,0,0,1-6.67-6.49V41.56A3.51,3.51,0,0,1,262,38.08h6.67l.46,2.78h4.17V33H261.54A8.58,8.58,0,0,0,252.93,41.56Z"/><path class="cls-2" d="M294.7,33H284.51v4.63h2.77l-7.4,23.63h-2.79v4.17h11.12V61.25h-2.78L287,55.69h9.32l1.62,5.56h-2.78v4.17h11.12V61.25H303.5Zm-6.07,17.6,3.06-9.73,3.05,9.73Z"/><polygon class="cls-2" points="303.74 41.33 307.92 41.33 307.92 38.08 312.78 38.08 312.78 61.25 310 61.25 310 65.42 321.12 65.42 321.12 61.25 318.35 61.25 318.35 38.08 323.21 38.08 323.21 41.33 327.38 41.33 327.38 32.99 303.74 32.99 303.74 41.33"/><path class="cls-2" d="M346,46.56l-7.41-1.62a2.87,2.87,0,0,1-2.32-2.69V40.86a2.82,2.82,0,0,1,3.11-2.78h8v2.78h4.17V33H339.4a8.71,8.71,0,0,0-2.18,17.14l7.23,1.62a4.31,4.31,0,0,1,3.42,4.17,4.42,4.42,0,0,1-4.39,4.4h-7.65V57.54h-4.17v7.88H343.8a9.58,9.58,0,0,0,9.63-9.59A9.46,9.46,0,0,0,346,46.56Z"/><polygon class="cls-2" points="195.06 22.49 194.1 22.49 194.1 16.16 202.32 16.16 202.32 22.49 201.32 22.49 201.32 24.04 205.29 24.04 205.29 22.49 204.32 22.49 204.32 9.18 205.29 9.18 205.29 7.72 201.32 7.72 201.32 9.18 202.32 9.18 202.32 14.2 194.1 14.2 194.1 9.18 195.06 9.18 195.06 7.72 191.08 7.72 191.08 9.18 192.1 9.18 192.1 22.49 191.08 22.49 191.08 24.04 195.06 24.04 195.06 22.49"/><path class="cls-2" d="M210.65,22.53h-1l.56-2h3.37l.58,2h-1V24h4V22.53h-1L213,12.32h-3.68v1.51h1l-2.67,8.7h-1V24h4Zm1.25-7.36L213,18.68H210.8Z"/><polygon class="cls-2" points="222.53 22.53 221.52 22.53 221.52 16.34 223.95 20.52 226.38 16.34 226.38 22.53 225.37 22.53 225.37 24.04 229.39 24.04 229.39 22.53 228.38 22.53 228.38 13.83 229.39 13.83 229.39 12.32 226.54 12.32 223.95 16.84 221.36 12.32 218.51 12.32 218.51 13.83 219.51 13.83 219.51 22.53 218.51 22.53 218.51 24.04 222.53 24.04 222.53 22.53"/><polygon class="cls-2" points="234.74 22.53 233.74 22.53 233.74 13.83 234.74 13.83 234.74 12.32 230.73 12.32 230.73 13.83 231.73 13.83 231.73 22.53 230.73 22.53 230.73 24.04 234.74 24.04 234.74 22.53"/><path class="cls-2" d="M244.28,21.19h-1.5v1.34h-3.69v-8.7h1V12.32h-4v1.51h1v8.7h-1V24h8.2Z"/><polygon class="cls-2" points="243.36 15.34 244.86 15.34 244.86 14.17 246.62 14.17 246.62 22.53 245.62 22.53 245.62 24.04 249.63 24.04 249.63 22.53 248.63 22.53 248.63 14.17 250.39 14.17 250.39 15.34 251.89 15.34 251.89 12.32 243.36 12.32 243.36 15.34"/><path class="cls-2" d="M256.84,24H258a3.61,3.61,0,0,0,3.63-3.58v-5a3.13,3.13,0,0,0-3.13-3.1h-2.13a3.12,3.12,0,0,0-3.11,3.1v5A3.6,3.6,0,0,0,256.84,24Zm-1.6-8.62a1.25,1.25,0,0,1,1.27-1.25h1.79a1.27,1.27,0,0,1,1.29,1.25v5a1.77,1.77,0,0,1-1.78,1.74H257a1.76,1.76,0,0,1-1.76-1.74Z"/><polygon class="cls-2" points="266.95 22.53 265.95 22.53 265.95 16.17 270.3 24.04 272.3 24.04 272.3 13.83 273.31 13.83 273.31 12.32 269.29 12.32 269.29 13.83 270.3 13.83 270.3 20.19 265.95 12.32 262.94 12.32 262.94 13.83 263.94 13.83 263.94 22.53 262.94 22.53 262.94 24.04 266.95 24.04 266.95 22.53"/><polygon class="cls-2" points="353.43 62.7 354.33 62.7 354.33 65.42 354.66 65.42 354.66 62.7 355.6 62.7 355.6 62.38 353.43 62.38 353.43 62.7"/><polygon class="cls-2" points="358.12 62.38 357.34 64.85 356.56 62.38 356.04 62.38 356.04 65.42 356.36 65.42 356.36 62.83 357.18 65.42 357.5 65.42 358.32 62.83 358.32 65.42 358.65 65.42 358.65 62.38 358.12 62.38"/></svg>