<?xml version="1.0" encoding="utf-8"?>
<!-- Generator: Adobe Illustrator 22.1.0, SVG Export Plug-In . SVG Version: 6.00 Build 0)  -->
<svg version="1.1" id="Layer_1" xmlns="http://www.w3.org/2000/svg" xmlns:xlink="http://www.w3.org/1999/xlink" x="0px" y="0px"
	 viewBox="0 0 460.4 58.1" style="enable-background:new 0 0 460.4 58.1;" xml:space="preserve">
<style type="text/css">
	.st0{fill:#FFFFFF;}
	.st1{fill:#006241;}
</style>
<title>Untitled-1</title>
<path class="st0" d="M118.9,13.1h2.4v2.7h-1.8v-1.4h-3.1v4.2h5.4c0.6,0.1,1.2-0.1,1.7-0.3c1.1-0.7,1.1-1.9,1.1-2.8v-2.2
	c0.2-0.9-0.2-1.9-0.9-2.5c-0.6-0.3-1.4-0.5-2-0.4h-2.2V7.8h1.8V9h2.9V4.9h-5.3c-0.8-0.1-1.6,0.2-2.1,0.8c-0.4,0.6-0.7,1.4-0.6,2.1
	v2.3c-0.1,0.8,0.2,1.6,0.7,2.2C117.5,12.9,118.2,13.1,118.9,13.1L118.9,13.1z M129.3,15.4h2l0.4,3.3h3.7v-2.9h-0.9l-1.7-10.9h-5.2
	l-1.6,10.9h-0.9v2.9h3.7C128.9,18.7,129.3,15.4,129.3,15.4z M130.3,7.2l0.8,5.8h-1.5C129.6,13,130.3,7.2,130.3,7.2z M143.3,18.3
	c1.1-0.7,1.1-1.9,1.1-2.8v-2.2c0.2-0.9-0.2-1.9-0.9-2.5c-0.6-0.3-1.4-0.5-2-0.4h-2.2V7.9h1.8v1.2h2.9V5h-5.3
	c-0.8-0.1-1.6,0.2-2.1,0.8c-0.4,0.6-0.7,1.4-0.6,2.1v2.3c-0.1,0.8,0.2,1.6,0.7,2.2c0.5,0.6,1.3,0.9,2,0.8h2.4v2.7h-1.8v-1.4h-3.1
	v4.2h5.4C142.2,18.8,142.8,18.7,143.3,18.3L143.3,18.3z M155.6,18.7v-2.9h-0.9v-4.9h-2l1.5-3.1h1V4.9h-3.1l-2.4,6v-6h-4.1v2.9h0.8v8
	h-0.8v2.9h4.1v-5.3h1.8v5.3C151.6,18.7,155.6,18.7,155.6,18.7z M166.2,18.7v-2.9h-0.9l-1.7-10.9h-5.2l-1.6,10.9H156v2.9h3.7l0.4-3.3
	h2l0.4,3.3H166.2z M160.3,13l0.8-5.8l0.8,5.8H160.3z M175.7,5h-10.3v5.1h2.3V7.9h1.2v8h-0.8v2.9h4.9v-2.9h-0.8v-8h1.2v2.2h2.3
	C175.7,10.1,175.7,5,175.7,5z M184.2,9.4V5h-4.7c-0.9,0-2,0-2.6,0.9c-0.4,0.7-0.6,1.5-0.5,2.4v7.3c0,0.9,0,2.6,1.6,3
	c0.5,0.1,0.9,0.2,1.4,0.2h4.9v-5.1h-2.9v2.2h-1.8v-8h1.8v1.6L184.2,9.4L184.2,9.4z M195.3,7.8V4.9h-4.1v5.4h-1.7V4.9h-4v2.9h0.8v8
	h-0.8v2.9h4v-5.5h1.7v5.5h4.1v-2.9h-0.8v-8H195.3z M196.5,15.9v2.9h8.6v-4.7h-2.9v1.8h-1.7V13h2.5v-2.6h-2.5V7.8h1.7v1.6h2.7V4.9
	h-8.4v2.9h0.8v8L196.5,15.9L196.5,15.9L196.5,15.9z M221.1,7.8V4.9h-4.9v2.9h1.1l-0.9,8l-1.7-10.9h-2.9L210.1,16l-0.9-8.3h1V4.8
	h-4.8v2.9h0.8l1.6,10.9h4l1.4-8.3l1.4,8.3h4.1l1.5-10.9L221.1,7.8L221.1,7.8z M220.7,18.7h3.7l0.4-3.3h2l0.4,3.3h3.7v-2.9h-0.9
	l-1.7-10.9h-5.2l-1.6,10.9h-0.9L220.7,18.7L220.7,18.7z M225.8,7.2l0.8,5.8h-1.5L225.8,7.2L225.8,7.2z M235.3,11l3.3,7.7h3.8v-2.9
	h-0.8v-8h0.8V4.9h-3.7v7.8l-3.3-7.8h-3.8v2.9h0.8v8h-0.8v2.9h3.7C235.3,18.7,235.3,11,235.3,11L235.3,11z"/>
<path class="st1" d="M126.9,42.2h4.7v9.1c0.1,2.8,1.3,3.1,4.4,3.1h5.8v-6.3h-2v-3.2c0.1-1.4-0.3-2.9-1.2-4.1
	c-0.8-0.9-1.9-1.4-3.1-1.6c4.3-1.4,4.3-4.1,4.3-8c0-2,0-3.9-1.6-5.5c-1.6-1.5-3.8-1.5-5.7-1.5h-15.9v6.3h2V48h-2v6.3h10.3V42.2
	L126.9,42.2z M126.9,30.6h4.7v6h-4.7V30.6z M146.5,53.1c1.7,1.4,4.2,1.4,6.1,1.4h5.5c2.6,0,6.2,0,7.2-4c0.3-1.6,0.4-3.3,0.4-5V33
	c0-2.5,0-4.4-0.9-6c-1.4-2.5-4.2-2.6-7.1-2.6h-6c-2.3,0-5.3,0-6.6,3.2c-0.5,1.6-0.8,3.3-0.7,5v14.7
	C144.6,49.2,144.6,51.5,146.5,53.1L146.5,53.1z M153,30.6h4.5v17.6H153V30.6z M172.6,53.1c1.5,1.3,3.3,1.3,4.9,1.4h7.2
	c2,0,4.4,0,6-2.3c1.2-1.6,1.1-4,1.1-5.9V30.6h2v-6.3h-10.3v23.9h-4.3V24.3h-10.3v6.3h2v16.6C170.9,49.9,171,51.7,172.6,53.1z
	 M199,53.4c1.6,1,3.4,1,5,1h13.8V36.2h-10.4v6.3h2.6v5.7h-4.8V30.6h4.8v2.6h7.5v-8.9h-13.2c-2.5,0-5,0-6.6,2.2c-1,1.5-1,3.5-1,5.2
	v15.6C196.8,49.9,196.9,52,199,53.4L199,53.4z M247,30.6v-6.3h-10.3V36h-4.3V24.3h-10.2v6.3h2v17.6h-2v6.3h10.2V42.4h4.3v12.1H247
	v-6.3h-2V30.6H247z M269.5,54.5h5.7v-6.3h-2v-3.2c0.1-1.4-0.3-2.9-1.2-4.1c-0.8-0.9-1.9-1.4-3.1-1.6c4.3-1.4,4.3-4.1,4.3-8
	c0-2,0-3.9-1.6-5.5c-1.6-1.5-3.8-1.5-5.7-1.5H250v6.3h2v17.6h-2v6.3h10.3V42.1h4.7v9.1C265.1,54.1,266.3,54.5,269.5,54.5L269.5,54.5
	z M260.4,36.6v-6h4.7v6H260.4z M290.3,30.6v-6.3h-12.4v6.3h2v17.6h-2v6.3h12.4v-6.3h-2V30.6H290.3z M315.6,51.4
	c0.6-1.6,0.9-3.4,0.8-5.2V32.1c0-2.5,0-5.7-2.9-7.2c-1.4-0.8-3.2-0.8-4.8-0.8h-15.5v6.3h2v17.6h-2v6.3h15.7
	C311.5,54.5,314.4,54.5,315.6,51.4z M308.1,48.2h-4.5V30.6h4.5V48.2z M319.5,48.2v6.3h22.1V44.3h-7.4v3.9h-4.4v-6.3h6.2v-5.5h-6.2
	v-5.8h4.4v3.6h7v-9.9h-21.6v6.3h2v17.6H319.5L319.5,48.2z M364.2,54.5h5.8v-6.3h-2v-3.2c0.1-1.4-0.3-2.9-1.2-4.1
	c-0.8-0.9-1.9-1.4-3.1-1.6c4.3-1.4,4.3-4.1,4.3-8c0-2,0-3.9-1.6-5.5c-1.6-1.5-3.8-1.5-5.7-1.5h-15.9v6.3h2v17.6h-2v6.3h10.3V42.1
	h4.7v9.1C359.9,54.1,361.1,54.5,364.2,54.5L364.2,54.5z M355.1,36.6v-6h4.7v6H355.1z M373.1,45.3v9.2h13.7c1.5,0.1,3-0.2,4.3-0.8
	c2.7-1.4,2.7-4.2,2.8-6.2v-4.8c0-1.7,0-4.1-2.2-5.5c-1.5-1-3.5-1-5.2-1H381v-5.6h4.7v2.6h7.4v-8.9h-13.5c-1.7,0-3.8,0-5.5,1.7
	c-1.4,1.4-1.4,3-1.4,4.6v5c0,1.7,0.1,3.4,1.6,4.9s3.5,1.5,5.2,1.6h6.1v6H381v-3L373.1,45.3L373.1,45.3z"/>
<path class="st0" d="M85.7,6L88,1.7H76.9L76,2.6c-0.6,0.7-1.4,1.1-2.1,1.1c-0.9,0-1.7-0.3-2.8-0.8C68.9,2.1,66.3,1,61.4,1
	c-4.3,0-8.7,1.2-12,3.3c-0.8,0.5-1.5,1.1-2.2,1.7h-6.8c-4.3,0-14.7,0.9-19.1,9L1,52.7h21l-2.1,4H31l0.9-1.2c1-1.4,1.6-1.6,2.6-1.6
	c1.6,0,2.8,0.4,4.3,0.9c1.9,0.7,4.3,1.5,7.9,1.5c4.8,0,9.5-1.2,13.4-3.5h8.8c4.3,0,14.7-0.9,19.1-9l20.2-37.6H85.7V6z"/>
<path d="M40.4,7.4c-13.4,0-17.3,7.1-17.9,8.3L3.4,51.3h65.4c13.4,0,17.3-7.1,17.9-8.3l19.1-35.6H40.4z M77.6,45.7c0,0-2.2,4.1-9,4.1
	H11.9L31.7,13c0,0,2.2-4.1,9-4.1h23.2l1.5-0.1L67,8.9h30.4L77.6,45.7L77.6,45.7z"/>
<g>
	<path class="st0" d="M87.2,48c-0.9,0-1.7,0.7-1.7,1.7c0,0.9,0.7,1.7,1.7,1.7c0.9,0,1.7-0.7,1.7-1.7C88.8,48.7,88.1,48,87.2,48
		 M87.2,51c-0.7,0-1.3-0.6-1.3-1.3c0-0.7,0.6-1.3,1.3-1.3c0.7,0,1.3,0.6,1.3,1.3C88.5,50.4,87.9,51,87.2,51z"/>
	<path class="st0" d="M87.8,49.3c0-0.3-0.3-0.6-0.6-0.6h-0.8v1.9h0.4v-0.8h0.3l0.4,0.8h0.4l-0.4-0.8C87.7,49.7,87.8,49.5,87.8,49.3
		 M87.3,49.5h-0.4v-0.4h0.4c0.1,0,0.2,0.1,0.2,0.2S87.4,49.5,87.3,49.5L87.3,49.5z"/>
</g>
<g>
	<path class="st0" d="M88.7,36.5l-3.3,2.1h-0.2c-0.1,0-0.1-0.1-0.1-0.2v-3.9l1.5-2.8v-0.9l-3.4,6.3c0,0.1-0.1,0.1-0.1,0.2v4.6
		L82,44.1c-0.1,0.1,0,0.2,0.1,0.3c0.1,0.1,0.2,0,0.3-0.1l1.2-2.1l3.9-2.5c0.1,0,0.1-0.1,0.2-0.2l2.7-5.1l-0.8,0.5L88.7,36.5
		L88.7,36.5z"/>
	<path class="st0" d="M93.4,27.8l-3.3,2.1h-0.2c-0.1,0-0.1-0.1-0.1-0.2v-3.9l1.5-2.8v-0.9l-3.4,6.2c0,0.1-0.1,0.1-0.1,0.2v4.6
		l-1.2,2.1c-0.1,0.1,0,0.2,0.1,0.3c0.1,0.1,0.2,0,0.3-0.1l1.2-2.1l3.9-2.5c0.1,0,0.1-0.1,0.2-0.2l2.7-5.1L94.2,26
		C94.2,26,93.4,27.8,93.4,27.8z"/>
	<path class="st0" d="M98.1,19l-3.3,2.1c-0.1,0-0.2,0.1-0.2,0c-0.1,0-0.1-0.1-0.1-0.2V17l1.5-2.8v-0.9l-3.4,6.2
		c0,0.1-0.1,0.1-0.1,0.2v4.6l-1.2,2.1c-0.1,0.1,0,0.2,0.1,0.3c0.1,0.1,0.2,0,0.3-0.1l1.2-2.1l3.9-2.5c0.1,0,0.1-0.1,0.2-0.2l2.7-5.1
		l-0.8,0.5C98.9,17.2,98.1,19,98.1,19z"/>
	<path class="st0" d="M103.3,9.2c-2.8,0.9-4.8,2.2-6.1,3.5v3.1L96,17.9c-0.1,0.1,0,0.2,0.1,0.3c0.1,0.1,0.2,0,0.3-0.1l1.2-2.1
		l2.5-1.6v-3.2c0.9-0.5,1.9-1,2.9-1.4L103.3,9.2L103.3,9.2z"/>
</g>
<g>
	<path class="st0" d="M17.5,36.5l-3.3,2.1H14c-0.1,0-0.1-0.1-0.1-0.2v-3.9l0.9-1.7v-0.9L12,37.1c0,0.1-0.1,0.1-0.1,0.2v4.6L10.7,44
		c-0.1,0.1,0,0.2,0.1,0.3c0.1,0.1,0.2,0,0.3-0.1l1.2-2.1l3.9-2.5c0.1,0,0.1-0.1,0.2-0.2l3.7-6.9L19.3,33
		C19.3,33,17.5,36.5,17.5,36.5z"/>
	<path class="st0" d="M23.9,24.6L22,28.1l-3.3,2.1h-0.2c-0.1,0-0.1-0.1-0.1-0.2v-3.9l0.9-1.7v-0.9l-2.7,5.1c0,0.1-0.1,0.1-0.1,0.2
		v4.6l-1.2,2.1c-0.1,0.1,0,0.2,0.1,0.3c0.1,0.1,0.2,0,0.3-0.1l1.2-2.1l3.9-2.5c0.1,0,0.1-0.1,0.2-0.2l3.7-6.9
		C24.7,24,23.9,24.6,23.9,24.6z"/>
	<path class="st0" d="M19.9,27.6c0.1,0.1,0.2,0,0.3-0.1l1.2-2.1l3.9-2.5c0.1,0,0.1-0.1,0.2-0.2l3.7-6.9l-0.8,0.5l-1.9,3.5l-3.3,2.1
		H23c-0.1,0-0.1-0.1-0.1-0.2v-3.9l0.9-1.7v-0.9l-2.7,5.1c0,0.1-0.1,0.1-0.1,0.2v4.6l-1.2,2.1C19.8,27.4,19.8,27.5,19.9,27.6z"/>
	<path class="st0" d="M24.3,18.6c0.1,0.1,0.2,0,0.3-0.1l1.2-2.1l2.5-1.6v-3.1c0.8-0.5,1.8-1,2.9-1.4l0.3-0.6c-2.8,1-4.8,2.4-6.1,3.7
		v2.8l-1.2,2.1C24.2,18.4,24.2,18.5,24.3,18.6L24.3,18.6z"/>
</g>
<path class="st1" d="M77.6,45.7c0,0-2.2,4.1-9,4.1H11.9L31.7,13c0,0,2.2-4.1,9-4.1h23.2l1.5-0.1l1.7,0.1h30.3L77.6,45.7z"/>
<path class="st0" d="M48.7,28.6H33.3l0.8-1.6h-10l-1.7,3.1h27.3C49.3,29.6,49,29.1,48.7,28.6z M44.9,21H33.3l0.8-1.6H28l-1.7,3.1h19
	C45.3,22,45.1,21.5,44.9,21z M53.2,36.2H33.3l0.8-1.6H20l-1.7,3.1h35.5C53.7,37.3,53.5,36.7,53.2,36.2z M62.8,21
	c0.2,0.2,0.3,0.5,0.5,0.7c0.2,0.3,0.4,0.5,0.6,0.8h12.9l-0.9,1.6h13.3l1.7-3.1C90.9,21,62.8,21,62.8,21z M69.2,37.7h7.5l-0.8,1.6H81
	l1.7-3.1H69.3C69.3,36.7,69.2,37.2,69.2,37.7z M68.2,30.1h8.5l-0.8,1.6h9.2l1.7-3.1H67.5C67.7,29.1,68,29.6,68.2,30.1z"/>
<path d="M61.3,2.4c-4.1,0-8.1,1.1-11.2,3.1c-3.9,2.5-5.9,6.2-5.9,10.6c0,5.5,3,10.2,5.7,14.3c2.3,3.5,4.4,6.9,4.4,10.2
	c0,1.9-0.9,4-2.4,5.6c-1.3,1.3-3.5,3-7.3,3c-1.6,0-5.6-0.3-7.8-2.9c-0.7-0.9-1.2-2.2-0.5-3.6H29l-6.8,12.6h8l0.5-0.6
	c1.1-1.6,2.2-2.2,3.7-2.2c1.8,0,3.2,0.5,4.7,1c1.9,0.7,4.1,1.4,7.5,1.4c6.3,0,12.1-2.1,16.4-6c4-3.6,6.3-8.3,6.3-13
	c0-5.4-3.2-10.1-6-14.2c-2-2.9-3.9-5.7-3.9-7.9c0-2.3,1.6-4.9,6-4.9c6.6,0,7.4,4.3,7.4,4.4l0.2,1.3h6.6l4.9-9.2l1.2-2.2h-8.2L77,3.6
	c-0.6,0.7-1.7,1.5-3.1,1.5c-1.1,0-2.1-0.4-3.3-0.9C68.5,3.4,65.9,2.4,61.3,2.4L61.3,2.4z"/>
<path class="st0" d="M78.1,4.6c-0.8,0.9-2.2,2-4.3,2c-3.5,0-5.3-2.7-12.5-2.7c-6.9,0-15.6,3.6-15.6,12.2c0,9.7,10.1,16.6,10.1,24.5
	c0,4.3-3.6,10.1-11.2,10.1c-7.5,0-10.5-4.6-10.2-6.6h-4.6l-5.2,9.6h4.7c1.2-1.7,2.6-2.8,5-2.8c4.4,0,6.4,2.4,12.2,2.4
	c12.8,0,21.2-9.1,21.2-17.4c0-9-9.9-16.2-9.9-22.1c0-4.1,3.4-6.4,7.5-6.4c8,0,8.9,5.6,8.9,5.6h4.4l4.5-8.4L78.1,4.6L78.1,4.6z"/>
</svg>
