<?xml version="1.0" encoding="utf-8"?><svg id="Layer_1" xmlns="http://www.w3.org/2000/svg" viewBox="708 34.6 1722 328.4"><style>.st0{fill:#FFFFFF;} .st1{fill:#AC162C;}</style><path class="st0" d="M951.5 214.5c2.8 1.1 5.5 2.4 8.3 3.7-2-8.1-4.7-15.9-8.1-23.2 2.9.6 5.9 1.4 8.8 2.2-3.4-7.7-7.4-14.8-12-21.4 3 .1 6 .3 9.1.7-4.6-7-9.8-13.3-15.5-19 3-.4 6-.7 9-.9-5.8-6-12-11.4-18.6-16 2.9-.9 5.8-1.8 8.7-2.5-6.7-4.9-13.8-9.1-21.1-12.5 2.7-1.4 5.4-2.7 8.2-4-7.5-3.7-15.2-6.6-22.9-8.7 2.4-1.8 4.8-3.6 7.4-5.3-8-2.3-16.1-3.9-24.1-4.6 2-2.2 4.1-4.4 6.3-6.5-8.3-.9-16.5-1-24.5-.3 1.6-2.5 3.3-5.1 5.1-7.5-8.3.5-16.4 1.9-24.2 3.9 1.1-2.8 2.4-5.5 3.7-8.3-8.1 2-15.9 4.7-23.2 8.1.6-2.9 1.4-5.9 2.2-8.8-7.7 3.4-14.8 7.4-21.4 12 .1-3 .3-6 .7-9.1-7 4.6-13.3 9.8-19 15.5-.4-3-.7-6-.9-9-6 5.8-11.4 12-16 18.6-.9-2.9-1.8-5.8-2.5-8.7-4.9 6.7-9.1 13.8-12.5 21.1-1.4-2.7-2.7-5.4-4-8.2-3.7 7.5-6.6 15.2-8.7 22.9-1.8-2.4-3.6-4.8-5.3-7.4-2.3 8-3.9 16.1-4.6 24.1-2.2-2-4.4-4.1-6.5-6.3-.9 8.3-1 16.5-.3 24.5-2.5-1.6-5.1-3.3-7.5-5.1.5 8.3 1.9 16.4 3.9 24.2-2.8-1.1-5.6-2.4-8.3-3.7 2 8.1 4.7 15.9 8.1 23.2-2.9-.6-5.9-1.4-8.8-2.2 3.4 7.7 7.4 14.8 12 21.4-3-.1-6-.3-9.1-.7 4.6 7 9.8 13.3 15.5 19-3 .4-6 .7-9 .9 5.8 6 12 11.4 18.6 16-2.9.9-5.8 1.7-8.7 2.5 6.7 4.9 13.8 9.1 21.1 12.5-2.7 1.4-5.4 2.7-8.2 4 7.5 3.7 15.2 6.6 22.9 8.7-2.4 1.8-4.8 3.6-7.4 5.3 8 2.3 16.1 3.8 24.1 4.6-2 2.2-4.1 4.4-6.3 6.5 8.3.9 16.5 1 24.5.3-1.6 2.5-3.3 5.1-5.1 7.5 8.3-.5 16.4-1.9 24.2-3.9-1.1 2.8-2.4 5.6-3.7 8.3 8.1-2 15.9-4.7 23.2-8.1-.6 2.9-1.4 5.9-2.2 8.8 7.7-3.4 14.8-7.4 21.4-12-.1 3-.3 6-.7 9.1 6.9-4.6 13.3-9.8 19-15.5.4 3 .7 6 .9 9 6-5.8 11.4-12 16-18.6.9 2.9 1.8 5.8 2.5 8.7 5-6.7 9.1-13.8 12.5-21.1 1.4 2.7 2.7 5.4 4 8.2 3.7-7.5 6.6-15.2 8.7-22.9 1.8 2.4 3.6 4.8 5.3 7.4 2.3-8 3.8-16.1 4.6-24.1 2.2 2 4.4 4.1 6.5 6.3.9-8.3 1-16.5.3-24.5 2.5 1.6 5.1 3.3 7.5 5.1-.5-8.3-1.8-16.4-3.9-24.2"/><path d="M945.7 208.2c2.7.9 5.4 2 8 3.1-2.3-7.6-5.2-14.7-8.8-21.4 2.8.4 5.6 1 8.4 1.6-3.6-7-7.7-13.6-12.4-19.6 2.8 0 5.7 0 8.6.2-4.7-6.3-10-12-15.6-17.1 2.8-.5 5.6-1 8.5-1.3-5.8-5.4-11.9-10.1-18.3-14.1 2.7-1 5.4-1.9 8.1-2.8-6.6-4.3-13.5-7.9-20.5-10.8 2.4-1.5 4.9-2.8 7.5-4.1-7.2-3.1-14.6-5.4-22.1-7 2.1-1.9 4.4-3.7 6.7-5.4-7.7-1.8-15.4-2.8-23-3.1 1.8-2.2 3.7-4.4 5.6-6.5-7.9-.4-15.6-.1-23.1 1 1.4-2.5 2.8-4.9 4.4-7.3-7.8.9-15.4 2.6-22.6 5 .9-2.7 2-5.4 3.1-8-7.5 2.3-14.7 5.3-21.4 8.8.4-2.8 1-5.6 1.7-8.4-7 3.6-13.6 7.7-19.6 12.4 0-2.8 0-5.7.2-8.6-6.3 4.7-12 10-17.1 15.6-.5-2.8-1-5.6-1.3-8.5-5.4 5.8-10.1 11.9-14.2 18.3-1-2.7-1.9-5.4-2.8-8.1-4.3 6.6-7.9 13.5-10.7 20.5-1.5-2.4-2.8-4.9-4.1-7.5-3.1 7.3-5.4 14.6-7 22.1-1.9-2.1-3.7-4.4-5.4-6.7-1.8 7.7-2.8 15.4-3.1 23-2.2-1.8-4.4-3.7-6.5-5.6-.4 7.9-.1 15.6.9 23.1-2.5-1.4-4.9-2.8-7.3-4.4.9 7.8 2.6 15.4 5 22.6-2.7-.9-5.4-2-8-3.1 2.3 7.6 5.3 14.7 8.8 21.4-2.8-.5-5.6-1-8.4-1.7 3.6 7 7.7 13.6 12.4 19.6-2.8 0-5.7 0-8.6-.2 4.7 6.3 10 12 15.6 17.1-2.8.5-5.6 1-8.5 1.3 5.8 5.4 11.9 10.1 18.3 14.1-2.7 1-5.4 1.9-8.1 2.8 6.6 4.3 13.5 7.9 20.5 10.8-2.4 1.5-4.9 2.8-7.5 4.1 7.3 3.1 14.6 5.4 22.1 7-2.1 1.9-4.4 3.7-6.7 5.4 7.7 1.8 15.4 2.8 23 3.1-1.8 2.2-3.7 4.4-5.6 6.5 7.9.4 15.6.1 23.1-1-1.4 2.5-2.8 4.9-4.4 7.3 7.8-.9 15.4-2.6 22.6-5-.9 2.7-2 5.4-3.1 8 7.6-2.3 14.7-5.2 21.4-8.8-.5 2.8-1 5.6-1.7 8.4 7-3.6 13.6-7.7 19.6-12.4 0 2.8 0 5.7-.2 8.6 6.3-4.7 12-10 17.1-15.6.5 2.8 1 5.6 1.3 8.5 5.4-5.8 10.1-11.9 14.1-18.3 1 2.7 1.9 5.4 2.8 8.1 4.3-6.6 7.9-13.5 10.8-20.5 1.5 2.4 2.8 4.9 4.1 7.5 3.1-7.3 5.4-14.6 7-22.1 1.9 2.1 3.7 4.4 5.4 6.7 1.8-7.7 2.8-15.4 3.1-23 2.2 1.8 4.4 3.7 6.5 5.6.4-7.9.1-15.6-1-23.1 2.5 1.4 4.9 2.9 7.3 4.4-.8-7.7-2.5-15.3-4.9-22.5"/><path class="st1" d="M840.5 287.9c-16.7 0-32.2-4.9-45.3-13.2h-8c14.9 11.2 33.3 17.8 53.3 17.8s38.4-6.6 53.3-17.8h-8c-13 8.4-28.6 13.2-45.3 13.2zm0-168.6c12.3 0 24 2.7 34.5 7.4 4 .1 7.9.4 11.6 1-13.5-8.2-29.2-12.9-46.1-12.9-16.1 0-31.2 4.3-44.2 11.8h10c10.5-4.7 22.1-7.3 34.2-7.3zm79.4 44.3c.1 3.2-.1 6.5-.5 10.2 3.5 9.3 5.5 19.3 5.5 29.9 0 13.8-3.3 26.8-9.2 38.4l-2.2 12.4c10.1-14.4 16-31.9 16-50.8-.1-14.5-3.5-28.1-9.6-40.1zm-168.2 40c0 15 3.8 29.1 10.3 41.6l1.3-7.6c-4.6-10.4-7.1-21.9-7.1-33.9 0-22.6 8.9-43.1 23.4-58.2l1.3-7.6c-17.9 16.1-29.2 39.6-29.2 65.7z"/><path class="st0" d="M906.1 178.6c6.5-37-12.3-39.5-40-39.5h-72.7l-4.7 26.4h104.5l-21.8 6.7c.4 2.1.3 4.7-.3 8.1-2.2 12.4-7.6 15.6-15.1 15.6h-25.4l22.1 40.5-4.5 25.7h51.2l4.5-25.7h-11.2l-13.1-23.6c15.3-5 23-14.8 26.5-34.2z"/><path class="st0" d="M832.4 175.3l-35.2 6-9.7 55.1h-11.2l-4.6 25.8h56.6l4.5-25.8h-11.2l10.8-61.1zm85.2 124.4h1.6v5.1h.7v-5.1h1.7v-.6h-4v.6zm8.7-.6l-1.4 4.6-1.5-4.6h-1v5.7h.6V300l1.6 4.8h.6l1.5-4.8v4.8h.6v-5.7h-1z"/><path class="st1" d="M1128.6 215.4h-58l-3.7 21.1h9l-10 56.7h-9l-3.6 20.6h45.2l3.6-20.6h-9l10-56.7h21.8c6 0 9.4 2.5 7.8 12.2-1.7 9.6-6 12.2-12 12.2h-20.3l17.7 32.4-3.6 20.6h40.9l3.6-20.6h-9l-10.4-18.9c12.2-4 18.4-11.9 21.2-27.4 5.1-29.6-9.9-31.6-32.2-31.6zm104.4 77.9h-29.7l3.4-19.6h20.6l3.3-18.5H1210l3.3-18.6h29.7l-2.6 14.8h26.1l6.3-36h-92.4l-3.8 21.2h9l-10 56.7h-9l-3.6 20.6h92.4l6.7-37.9H1236zm100.7-77.9h-50.4l-3.7 21.1h9l-10 56.7h-9l-3.7 20.7h50.4c33.6 0 50.6-5.6 58.3-49.4 7.8-43.6-7.3-49.1-40.9-49.1zm12.6 46.2c-.2 1.1-.9 4.9-1.1 6.1-3 16.8-7.7 25.6-25.4 25.6h-13.6l10-56.7h13.6c17.7 0 19.5 8.2 16.5 25z"/><path class="st0" d="M1460.7 262.6c10.1-2.5 17-7.4 19.7-22.9 3.6-20.3-8.5-24.3-32.9-24.3h-57.9l-3.7 21.1h9l-10 56.7h-9l-3.6 20.6h60.6c27.3 0 38.4-7.1 42.1-27.7 2.8-16.4-5.1-21.6-14.3-23.5zm-12.9 20.1c-1.3 7.2-5.6 10.6-11.4 10.6h-24.3l3.8-21.4h24.3c5.8 0 8.9 3.6 7.6 10.8zm3.8-36.8c-1.3 7.2-5.5 9.8-11.2 9.8h-21.7l3.4-19.1h21.7c5.7 0 9.1 2.2 7.8 9.3zm277.9 47.6c-3.2.5-10.2.8-15.7.8-17 0-18.6-9.8-15.7-26.1.3-1.5 1.3-7.2 1.4-7.8 2.9-16.7 7.9-25 24.5-25 5.2 0 12.6.4 15.6.8l-2.7 15.1h26.1l5.9-33.2c-4.6-1.3-21.6-4-40.9-4-32 0-50.9 9.6-58.1 50.4s7.4 50.4 40.1 50.4c19.3 0 37.5-2.7 42.6-4l6.2-35.1h-26.1l-3.2 17.7zm204.3-41.2c-17.2-1.7-19.2-3.2-17.9-10.7 1.3-7.5 4.7-9.2 17.8-9.2 4.7 0 15.3.4 17.2.8l-2.3 12.8h26.1l4.9-28c-4.9-1.6-27.8-4-42.5-4-30.8 0-45.8 5.6-49.7 27.8-4.8 27.4 2.3 30.8 36.3 34.4 18 1.9 21.2 2.1 19.7 10.3-1.4 7.9-4.1 10.8-21.6 10.8-5.9 0-14.4-.4-17.6-1.2l2.6-15h-26.1l-5.4 30.5c4.2.9 20.7 3.5 43 3.5 38.3 0 49.8-6.4 53.9-29.7 5-26.4-3.2-29.4-38.4-33.1zm-93 7.8l30.7-23.5h9.2l3.7-21.2h-46.8l-3.7 21.2h9.1l-35.4 27.2 4.8-27.2h6.9l3.7-21.2h-43.2l-3.7 21.2h9l-10 56.7h-9l-3.6 20.6h43.2l3.6-20.6h-6.9l1.2-7.1 15.2-11.6 12.3 18.7h-7.2l-3.6 20.6h47.8l3.7-20.6h-9.1zm-206.4-44.7h-31.3l-45.3 77.9h-40.1l10-56.7h13.2l3.7-21.1h-49.9l-3.7 21.1h9l-10 56.7h-9l-3.6 20.6h113.8l3.6-20.6h-13.1l5.1-9.1h34.9l1.8 9.1h-14.2l-3.6 20.6h52.4l3.6-20.6h-9.4l-17.9-77.9zm-39 53.5l17.1-30.5 6.1 30.5h-23.2zM1258.6 90.2c-31 0-52.4 7.6-60.1 50.8-7.6 43.2 10.8 50.8 41.9 50.8s52.5-7.9 60.1-51.1-10.9-50.5-41.9-50.5zm13.7 46.9c-.1.5-1.1 6.4-1.4 7.8-3.3 18.6-9.4 26.6-26.6 26.6-17.3 0-20.7-8.3-17.5-26.9.2-1.3 1.3-7.2 1.4-7.8 3.3-18.6 9.2-25.8 26.5-25.8s20.8 7.5 17.6 26.1zm90.3 32.5l10-56.7h9l-3.1 17.7h24.1l6.8-38.8h-93.8l-6.8 38.8h24.1l3.1-17.7h9l-10 56.7h-11.2l-3.6 20.6h50l3.6-20.6zm70.5-39l3.1-17.7h9.1l-10 56.7H1424l-3.6 20.6h50l3.7-20.6h-11.3l10-56.7h9.1l-3.1 17.7h24l6.9-38.8h-93.8l-6.9 38.8zm269.3 59.6l32.6-77.3h8.4l3.8-21.1h-43.4l-3.7 21.1h12l-18.1 44.7-5.2-56.5h-23.3l-25.3 57.4-2-45.6h11.9l3.7-21.1h-49.6l-3.8 21.1h8.5l6.5 77.3h30.7l21.4-50.1 2.7 50.1zm20.7-20.6l-3.6 20.6h46l3.6-20.6H1756l5.1-9.1h34.9l1.8 9.1h-14.1l-3.6 20.6h52.4l3.6-20.6h-9.4l-18.1-77.9h-31.3l-45.3 77.9h-8.9zm63.7-54.8l6.2 30.5h-23.3l17.1-30.5zm-298.5 54.8l-3.6 20.6h46l3.6-20.6h-13.1l5.1-9.1h34.9l1.8 9.1h-14.2l-3.6 20.6h52.4l3.6-20.6h-9.4l-18.1-77.9h-31.3l-45.3 77.9h-8.8zm63.7-54.8l6.2 30.5h-23.3l17.1-30.5zm420.7 188.7h3.4v10.4h1.3v-10.4h3.6v-1.2h-8.3zm17.9-1.2l-3 9.4-3-9.4h-2v11.6h1.3V304l3.1 9.9h1.2l3.1-9.9v9.9h1.3v-11.6z"/></svg>